<svg width="50" height="50" viewBox="0 0 50 50" fill="none" xmlns="http://www.w3.org/2000/svg">
<path d="M9.37684 13.0216C10.8136 13.0216 11.9783 11.8569 11.9783 10.4202C11.9783 8.98343 10.8136 7.81873 9.37684 7.81873C7.9401 7.81873 6.77539 8.98343 6.77539 10.4202C6.77539 11.8569 7.9401 13.0216 9.37684 13.0216Z" fill="white"/>
<path d="M19.7754 13.0361C21.2201 13.0361 22.3913 11.8649 22.3913 10.4201C22.3913 8.9754 21.2201 7.8042 19.7754 7.8042C18.3306 7.8042 17.1594 8.9754 17.1594 10.4201C17.1594 11.8649 18.3306 13.0361 19.7754 13.0361Z" fill="white"/>
<path d="M30.2029 13.0361C31.6476 13.0361 32.8188 11.8649 32.8188 10.4201C32.8188 8.9754 31.6476 7.8042 30.2029 7.8042C28.7581 7.8042 27.5869 8.9754 27.5869 10.4201C27.5869 11.8649 28.7581 13.0361 30.2029 13.0361Z" fill="white"/>
<path d="M22.4421 17.8477C22.4131 20.0458 22.4179 22.3139 22.4566 24.652C22.4711 25.2994 22.2682 25.3767 21.8479 24.8839C20.2899 23.0506 19.0218 23.5506 17.6305 25.0506C17.3261 25.3791 17.174 25.3163 17.174 24.8622V18.9854C17.1788 17.4395 17.0049 17.4177 16.6522 18.9202C16.2947 20.4419 15.959 21.9685 15.645 23.4999C15.5773 23.8091 15.4252 24.0627 15.1884 24.2607C15.0579 24.3672 14.9024 24.4387 14.7366 24.4685C14.5708 24.4983 14.4001 24.4854 14.2406 24.4311C14.0812 24.3767 13.9382 24.2827 13.8251 24.1578C13.712 24.0329 13.6326 23.8813 13.5942 23.7173L12.2826 17.9564C12.1667 17.454 12.0604 17.4564 11.9638 17.9636C11.8189 18.7173 11.8165 19.4564 11.9566 20.181C12.4348 22.6545 12.9421 25.169 13.4783 27.7245C13.4913 27.7867 13.4889 27.8512 13.4714 27.9123C13.4539 27.9733 13.4218 28.0289 13.378 28.0742C13.3342 28.1194 13.28 28.1529 13.2204 28.1715C13.1607 28.1902 13.0975 28.1935 13.0363 28.181L12.3624 28.0578C12.3117 28.0495 12.2599 28.0522 12.2104 28.0657C12.1609 28.0793 12.1149 28.1035 12.0757 28.1366C12.0364 28.1696 12.0048 28.2108 11.983 28.2573C11.9612 28.3037 11.9497 28.3543 11.9493 28.4057V30.0941C11.9493 30.4796 11.7984 30.8491 11.529 31.1231L10.4131 32.2462C10.0846 32.5796 9.91791 32.5119 9.91308 32.0434L9.87685 28.4347C9.86415 28.3149 9.80803 28.2039 9.7191 28.1227C9.63016 28.0415 9.51456 27.9957 9.39414 27.9939C9.27372 27.9921 9.15682 28.0345 9.06551 28.113C8.97421 28.1916 8.91483 28.3008 8.89859 28.4202C8.83579 30.0144 8.82371 31.5772 8.86236 33.1086C8.87202 33.5482 8.71743 33.9274 8.39859 34.2462C8.35511 34.2946 7.98796 34.6665 7.29714 35.3622C6.95414 35.71 6.78265 35.6424 6.78265 35.1593L6.78989 28.5434C6.78951 28.4762 6.77477 28.4099 6.74668 28.349C6.71859 28.288 6.67778 28.2337 6.627 28.1898C6.57622 28.1459 6.51664 28.1133 6.45225 28.0943C6.38786 28.0753 6.32015 28.0703 6.25366 28.0796L5.82612 28.1303C5.42516 28.1834 5.26091 28.0095 5.33337 27.6086C5.744 25.4926 6.1667 23.4347 6.60149 21.4347C6.86719 20.1931 6.90342 18.9612 6.71018 17.739C6.64255 17.3187 6.56525 17.3163 6.4783 17.7318L5.30438 23.3839C5.16429 24.0651 4.74883 24.4347 4.05801 24.4926C3.57975 24.5313 3.28506 24.053 3.17395 23.0578C3.17396 23.0289 3.17639 23.0022 3.1812 22.9781L4.84786 15.5941C4.89502 15.3781 5.01513 15.1839 5.18844 15.0434C7.44207 13.1955 11.3624 12.9564 13.6667 15.1376C13.8406 15.3018 13.9469 15.4999 13.9855 15.7318L14.3768 17.9274C14.4541 18.3767 14.5725 18.3863 14.7319 17.9564C14.9541 17.3477 15.0797 16.7173 15.1087 16.0651C15.1232 15.8284 15.2005 15.6158 15.3406 15.4274C17.3261 12.8187 21.6522 13.3115 23.9566 14.9854C24.1691 15.14 24.2996 15.3453 24.3479 15.6013L24.7392 17.7535C24.8503 18.367 24.9952 18.3743 25.174 17.7752C25.3769 17.0748 25.5266 16.3719 25.6232 15.6665C25.6417 15.5228 25.6899 15.3847 25.7648 15.2612C25.8397 15.1376 25.9396 15.0313 26.058 14.9491C28.6764 13.1424 31.3865 13.1013 34.1884 14.826C34.4783 15.0047 34.6595 15.2583 34.7319 15.5868L36.1015 21.7318C36.1353 21.8815 36.1087 22.0216 36.0218 22.152C35.6643 22.6883 35.2319 23.152 34.7247 23.5434C34.6879 23.5729 34.6441 23.5924 34.5976 23.6002C34.5511 23.6079 34.5033 23.6036 34.459 23.5876C34.4146 23.5716 34.3751 23.5444 34.3442 23.5088C34.3133 23.4731 34.2921 23.4301 34.2826 23.3839L33.2174 18.4419C33.0145 17.4902 32.8865 17.4999 32.8334 18.4709C32.7416 20.2487 32.7488 22.2148 32.8551 24.3694C32.9203 25.7318 31.9711 26.3405 31.1377 27.1738C31.1038 27.2102 31.059 27.2348 31.01 27.2438C30.9611 27.2529 30.9105 27.2459 30.8658 27.224C30.8211 27.202 30.7846 27.1663 30.7618 27.122C30.739 27.0777 30.7311 27.0273 30.7392 26.9781C30.8213 26.3888 30.8068 25.8066 30.6957 25.2318C30.6838 25.1724 30.6599 25.1162 30.6254 25.0666C30.591 25.017 30.5467 24.9752 30.4956 24.9438C30.4444 24.9124 30.3875 24.8922 30.3283 24.8844C30.2692 24.8765 30.2092 24.8813 30.1522 24.8984C30.0749 24.9226 30.0025 24.9564 29.9348 24.9999C29.7899 25.0868 29.715 25.2124 29.7102 25.3767C29.6909 26.3477 29.6909 27.2849 29.7102 28.1883C29.715 28.425 29.6329 28.6255 29.4638 28.7897L27.8551 30.3912C27.6281 30.6182 27.5145 30.5723 27.5145 30.2535L27.5653 18.2752C27.5653 17.338 27.4517 17.3235 27.2247 18.2318C26.8189 19.8356 26.4445 21.5917 26.1015 23.4999C26.0572 23.7457 25.9357 23.9711 25.7545 24.1431C25.5734 24.3151 25.3421 24.4249 25.0942 24.4564C24.4614 24.5434 24.0749 24.2438 23.9348 23.5578C23.529 21.6062 23.1015 19.6955 22.6522 17.826C22.5218 17.2704 22.4517 17.2776 22.4421 17.8477Z" fill="white"/>
<path d="M27.7681 33.4709L41.4638 19.768C41.4861 19.7464 41.5039 19.7205 41.516 19.6919C41.5282 19.6632 41.5344 19.6324 41.5344 19.6013C41.5344 19.5702 41.5282 19.5395 41.516 19.5108C41.5039 19.4822 41.4861 19.4563 41.4638 19.4347L38.8188 16.8767C38.7853 16.8443 38.7623 16.8025 38.7529 16.7568C38.7435 16.7111 38.7481 16.6636 38.7661 16.6205C38.7841 16.5775 38.8147 16.5408 38.8538 16.5154C38.893 16.49 38.9389 16.477 38.9855 16.4782L46.6449 16.5289C46.7064 16.5289 46.7654 16.5533 46.8089 16.5968C46.8524 16.6403 46.8768 16.6993 46.8768 16.7608L46.913 24.355C46.9142 24.4016 46.9012 24.4475 46.8758 24.4867C46.8504 24.5258 46.8138 24.5564 46.7707 24.5744C46.7276 24.5924 46.6802 24.597 46.6344 24.5876C46.5887 24.5782 46.5469 24.5552 46.5145 24.5216L43.9493 22.0071C43.9059 21.9642 43.8473 21.9401 43.7862 21.9401C43.7252 21.9401 43.6666 21.9642 43.6232 22.0071L27.7826 37.8405C27.761 37.8628 27.7351 37.8806 27.7065 37.8927C27.6778 37.9049 27.6471 37.9111 27.616 37.9111C27.5849 37.9111 27.5541 37.9049 27.5254 37.8927C27.4968 37.8806 27.4709 37.8628 27.4493 37.8405L19.9493 30.3477C19.9277 30.3254 19.9018 30.3076 19.8731 30.2955C19.8445 30.2833 19.8137 30.2771 19.7826 30.2771C19.7515 30.2771 19.7207 30.2833 19.6921 30.2955C19.6635 30.3076 19.6376 30.3254 19.616 30.3477L5.96378 44.0071C5.92133 44.051 5.86328 44.0764 5.80223 44.0778C5.74117 44.0791 5.68205 44.0564 5.63769 44.0144L3.77537 42.1738C3.75302 42.1522 3.73525 42.1263 3.72311 42.0977C3.71097 42.069 3.70471 42.0382 3.70471 42.0071C3.70471 41.976 3.71097 41.9453 3.72311 41.9166C3.73525 41.888 3.75302 41.8621 3.77537 41.8405L19.6232 25.9564C19.6448 25.9341 19.6707 25.9163 19.6994 25.9041C19.728 25.892 19.7588 25.8858 19.7899 25.8858C19.821 25.8858 19.8517 25.892 19.8804 25.9041C19.909 25.9163 19.9349 25.9341 19.9565 25.9564L27.4348 33.4709C27.4564 33.4933 27.4823 33.511 27.5109 33.5232C27.5396 33.5353 27.5704 33.5416 27.6015 33.5416C27.6326 33.5416 27.6633 33.5353 27.692 33.5232C27.7206 33.511 27.7465 33.4933 27.7681 33.4709Z" fill="white"/>
</svg>
