<svg width="50" height="50" viewBox="0 0 50 50" fill="none" xmlns="http://www.w3.org/2000/svg">
<g clip-path="url(#clip0_183_989)">
<path d="M48.8876 30.4722L43.2794 14.5704C43.2926 14.5712 43.3066 14.5729 43.319 14.5729C47.1802 14.639 48.1454 12.5631 48.6478 11.8443C49.3429 10.8511 47.8753 9.85773 47.1032 10.5203C46.3312 11.1819 44.2454 12.5722 40.2296 10.718C36.6088 9.0464 30.2607 6.13849 26.5547 5.58195V1.77335C26.5547 0.914075 25.8587 0.218567 25.0002 0.218567C24.1413 0.218567 23.4453 0.914075 23.4453 1.77335V5.58195C19.7393 6.13849 13.3913 9.0464 9.77041 10.718C5.75469 12.5722 3.66885 11.1819 2.89678 10.5203C2.12471 9.85783 0.657031 10.8512 1.35225 11.8443C1.85469 12.5631 2.81982 14.639 6.68096 14.5729C6.69385 14.5729 6.70791 14.5712 6.72022 14.5704L1.1124 30.4722H0C1.12275 34.1856 4.5707 36.8917 8.65186 36.8917C12.7325 36.8917 16.1805 34.1856 17.3032 30.4722H16.1913L10.2973 13.7599C13.9284 12.6401 19.0442 10.7271 23.4453 10.4325V12.7987H22.6146V38.946H21.3252V41.2759C20.4741 41.2759 19.6095 41.2759 18.8961 41.2759C16.6154 41.2759 16.6829 44.4955 16.6829 44.4955C14.8047 44.4955 13.8655 45.9702 13.8655 47.7815H36.1344C36.1344 45.9703 35.1953 44.4955 33.3175 44.4955C33.3175 44.4955 33.3845 41.2759 31.1038 41.2759C30.3904 41.2759 29.5258 41.2759 28.6747 41.2759V38.946H27.3854V12.7988H26.5546V10.4326C30.9562 10.7271 36.0719 12.6401 39.703 13.76L33.8087 30.4723H32.6967C33.8193 34.1857 37.2674 36.8918 41.348 36.8918C45.4291 36.8918 48.8772 34.1857 49.9998 30.4723H48.8876V30.4722ZM13.7933 30.4722H3.51055L8.65186 15.8945L13.7933 30.4722ZM36.2068 30.4722L41.3486 15.8945L46.4896 30.4722H36.2068Z" fill="white"/>
</g>
<defs>
<clipPath id="clip0_183_989">
<path d="M0.00012207 9.99988C0.00012207 4.47703 4.47727 -0.00012207 10.0001 -0.00012207H40.0001C45.523 -0.00012207 50.0001 4.47703 50.0001 9.99988V39.9999C50.0001 45.5227 45.523 49.9999 40.0001 49.9999H10.0001C4.47727 49.9999 0.00012207 45.5227 0.00012207 39.9999V9.99988Z" fill="white"/>
</clipPath>
</defs>
</svg>
