<svg width="122" height="122" viewBox="0 0 122 122" fill="none" xmlns="http://www.w3.org/2000/svg">
<rect x="2.5" y="2.5" width="117" height="117" rx="58.5" fill="#064E7F"/>
<rect x="2.5" y="2.5" width="117" height="117" rx="58.5" stroke="#F7AC00" stroke-width="5"/>
<path d="M74.2941 31.9679C88.2318 38.3161 95.9511 53.9685 91.9436 69.1184C85.4664 93.5873 54.663 101.199 37.4942 82.7606C28.8358 73.4638 26.7581 60.4497 31.4385 48.6254C31.4446 48.6092 31.4546 48.5948 31.4677 48.5835C31.4808 48.5721 31.4965 48.5643 31.5135 48.5606C31.5304 48.5569 31.548 48.5575 31.5646 48.5624C31.5812 48.5673 31.5963 48.5762 31.6086 48.5885L35.1947 51.9066C35.3228 52.0249 35.3623 52.1678 35.313 52.3353C31.0614 66.0884 37.1245 80.2849 50.4485 85.931C67.8465 93.2916 87.2632 81.0683 88.0395 62.0238C88.3871 53.3699 84.3573 44.7234 77.4883 39.5872C69.9563 33.9658 61.5444 32.5567 52.2526 35.36C52.0899 35.4093 51.9495 35.3724 51.8311 35.2492L48.5408 31.7167C48.5274 31.7025 48.5176 31.6852 48.5125 31.6664C48.5074 31.6475 48.507 31.6277 48.5114 31.6087C48.5157 31.5897 48.5248 31.572 48.5377 31.5573C48.5506 31.5426 48.5669 31.5314 48.5852 31.5245C57.3742 28.0167 65.9438 28.1645 74.2941 31.9679Z" fill="white"/>
<path d="M38.3277 34.3445C38.4163 33.4482 38.2095 32.4913 38.793 31.7318C39.4947 30.828 40.647 30.8735 41.4151 31.6482C43.1731 33.4305 44.9236 35.228 46.6667 37.0407C48.8457 39.3116 48.0553 42.023 48.2548 44.8636C48.2738 45.1282 48.3866 45.3789 48.5724 45.5699L62.1482 59.522C63.0641 60.4638 63.2414 61.5372 62.68 62.7423C62.5766 62.9651 62.4289 63.1524 62.2369 63.3043C60.9714 64.3069 59.7723 64.2258 58.6398 63.0613L45.1304 49.1472C44.9257 48.9419 44.6579 48.8204 44.377 48.8054C41.8509 48.7067 38.9999 49.3143 36.976 47.3092C35.1787 45.5269 33.3519 43.6458 31.4955 41.6661C30.944 41.0737 30.8529 40.3648 31.2222 39.5395C31.341 39.2762 31.5303 39.053 31.7683 38.8957C32.0062 38.7384 32.283 38.6535 32.5665 38.6508L34.2136 38.6432C34.6863 38.6432 34.7552 38.4711 34.4204 38.1268L31.9313 35.59C31.0351 34.6736 30.8184 33.6128 31.2813 32.4077C31.3994 32.1039 31.5767 31.8583 31.8131 31.671C33.0786 30.6887 34.2653 30.7849 35.3732 31.9596L37.8033 34.5343C38.1135 34.8584 38.2883 34.7951 38.3277 34.3445Z" fill="white"/>
<path d="M69.4022 75.8593C78.8215 70.7098 80.82 58.0675 74.1927 50.1632C69.5785 44.6685 63.5537 42.7903 56.1181 44.5289C54.9622 44.7982 54.2176 44.3648 53.8845 43.2286C53.7719 42.8271 53.6641 42.4549 53.5613 42.1121C53.2037 40.8877 53.6421 40.1164 54.8764 39.7981C63.877 37.4547 72.9069 40.327 78.5056 47.6876C86.6318 58.3466 83.3254 73.538 71.915 80.0612C64.2811 84.4321 54.9573 83.9032 47.8523 78.6361C40.358 73.0752 37.4558 63.9516 39.7849 54.8793C40.0984 53.655 40.8625 53.2191 42.0773 53.5717C42.3614 53.6501 42.7508 53.7603 43.2455 53.9023C44.4456 54.25 44.8791 55.0262 44.546 56.231C40.4315 71.1359 55.9124 83.242 69.4022 75.8593Z" fill="white"/>
<path d="M59.1305 67.9635C63.1134 68.6717 65.8942 67.3228 67.473 63.9169C68.8454 60.9542 68.26 58.1722 65.7167 55.5708C63.754 53.562 61.7458 51.5483 59.692 49.5299C59.3897 49.236 59.4473 49.0722 59.8647 49.0385C69.3085 48.3087 76.1322 58.0927 71.5255 66.6845C65.3352 78.2173 47.6498 72.7977 49.0822 59.7547C49.0861 59.7147 49.1015 59.6766 49.1264 59.6451C49.1513 59.6135 49.1848 59.5899 49.2227 59.5769C49.2607 59.564 49.3015 59.5623 49.3404 59.572C49.3793 59.5817 49.4146 59.6025 49.4421 59.6319C51.6782 61.9153 53.9528 64.1867 56.2658 66.446C56.9064 67.0747 58.274 67.8118 59.1305 67.9635Z" fill="white"/>
</svg>
