<svg width="50" height="50" viewBox="0 0 50 50" fill="none" xmlns="http://www.w3.org/2000/svg">
<g clip-path="url(#clip0_183_1012)">
<path d="M25 1.953C25.5393 1.953 25.9766 1.51578 25.9766 0.97644C25.9766 0.4371 25.5393 -0.00012207 25 -0.00012207C24.4607 -0.00012207 24.0234 0.4371 24.0234 0.97644C24.0234 1.51578 24.4607 1.953 25 1.953Z" fill="white"/>
<path d="M20.4101 9.74766L13.6961 3.05704C13.3171 2.67938 12.7037 2.68045 12.3261 3.05943L12.3082 3.07742C11.9305 3.4564 11.9316 4.06978 12.3105 4.44744L19.0246 11.1381C19.4035 11.5157 20.0169 11.5146 20.3946 11.1357L20.4125 11.1177C20.7902 10.7387 20.7891 10.1253 20.4101 9.74766Z" fill="white"/>
<path d="M37.6787 3.06524L37.6607 3.04732C37.2821 2.67004 36.6694 2.67111 36.2921 3.04971L29.6001 9.7651C29.2228 10.1437 29.2239 10.7565 29.6025 11.1337L29.6205 11.1517C29.9991 11.5289 30.6118 11.5279 30.9891 11.1493L37.6811 4.43388C38.0584 4.05528 38.0573 3.44252 37.6787 3.06524Z" fill="white"/>
<path d="M25.0264 3.93445H24.9736C24.4489 3.93445 24.0234 4.35987 24.0234 4.88464V10.4686C24.0234 10.9934 24.4489 11.4188 24.9736 11.4188H25.0264C25.5511 11.4188 25.9766 10.9934 25.9766 10.4686V4.88464C25.9766 4.35987 25.5511 3.93445 25.0264 3.93445Z" fill="white"/>
<path d="M50 21.3983V21.6639C49.9408 21.9256 49.846 22.1128 49.7158 22.2254C48.1299 23.592 46.54 24.9601 44.9463 26.3299C44.9033 26.3664 44.8695 26.4103 44.8447 26.4618L41.7217 33.0028C41.7163 33.0142 41.7138 33.0269 41.7145 33.0397C41.7152 33.0524 41.719 33.0649 41.7256 33.076C43.1445 35.4217 41.5566 38.3485 38.8096 38.3885C38.7686 38.3892 38.7474 38.4097 38.7461 38.4501C38.6914 39.7176 38.1673 40.6844 37.1738 41.3504C36.6458 41.704 36.0146 41.8905 35.2803 41.91C35.2658 41.9105 35.252 41.9165 35.2418 41.9266C35.2317 41.9368 35.2258 41.9504 35.2256 41.9647C35.1777 43.9354 33.7324 45.3602 31.7686 45.4266C31.7295 45.4279 31.7096 45.4484 31.709 45.4881C31.6494 48.2704 28.6572 49.8817 26.3164 48.3534C26.0732 48.1952 25.8701 47.9891 25.6396 47.8114C25.6321 47.8056 25.6228 47.8028 25.6135 47.8033C25.6041 47.8039 25.5954 47.8078 25.5889 47.8143C25.2695 48.1346 24.9541 48.4852 24.5811 48.7333C22.3955 50.1864 19.5127 48.8563 19.1934 46.2499C19.1908 46.2277 19.1784 46.218 19.1562 46.2206C16.9854 46.452 15.2422 44.9686 15.1797 42.7743C15.1784 42.7391 15.1602 42.7209 15.125 42.7196C12.9756 42.6532 11.4922 40.913 11.7119 38.7821C11.7158 38.745 11.6992 38.7238 11.6621 38.7186C8.86914 38.3094 7.6123 35.1014 9.51172 32.9471C9.52111 32.9363 9.52652 32.9226 9.52706 32.9084C9.52759 32.8941 9.52321 32.8802 9.51465 32.869L5.25781 27.1307C5.21498 27.073 5.16585 27.0202 5.11133 26.9735C3.55273 25.6323 1.99512 24.2915 0.438477 22.951C0.200846 22.7466 0.0546875 22.5152 0 22.2567V21.9735C0.061849 21.7684 0.116536 21.6366 0.164062 21.578C3.19271 17.826 6.22168 14.0741 9.25098 10.3221C9.4873 10.0292 9.67122 9.84915 9.80273 9.78209C10.167 9.59654 10.5381 9.68736 10.8701 9.8983C12.6572 11.0363 14.401 12.145 16.1016 13.2245C16.2194 13.2993 16.3639 13.3602 16.5352 13.4071C18.3464 13.9032 20.138 14.3921 21.9102 14.8739C21.9401 14.8817 21.9701 14.8814 22 14.8729L27.4473 13.3046C27.5334 13.2799 27.6228 13.2674 27.7129 13.2674H34.6729C34.7105 13.2675 34.7474 13.2566 34.7793 13.2362C36.5247 12.1236 38.29 11.0008 40.0752 9.86803C40.4268 9.64472 40.7555 9.61152 41.0615 9.76842C41.2178 9.84915 41.4287 10.0624 41.6943 10.4081C44.4131 13.9387 47.1312 17.4699 49.8486 21.0018C49.8949 21.0617 49.9453 21.1939 50 21.3983ZM14.3838 14.5096C14.3873 14.5054 14.3899 14.5005 14.3913 14.4951C14.3928 14.4898 14.3931 14.4843 14.3923 14.4789C14.3915 14.4734 14.3895 14.4682 14.3865 14.4636C14.3835 14.459 14.3796 14.455 14.375 14.452L10.4805 11.9754C10.4724 11.9705 10.4628 11.9687 10.4534 11.9703C10.4441 11.9719 10.4356 11.9769 10.4297 11.9842L2.36426 21.9735C2.35801 21.9814 2.35503 21.9913 2.35594 22.0013C2.35685 22.0113 2.36158 22.0206 2.36914 22.0272L5.76367 24.9481C5.76762 24.9515 5.77221 24.9541 5.77717 24.9557C5.78212 24.9573 5.78735 24.9578 5.79253 24.9574C5.79772 24.9569 5.80276 24.9554 5.80736 24.953C5.81197 24.9506 5.81604 24.9473 5.81934 24.9432L14.3838 14.5096ZM40.4424 11.9969C40.4368 11.9897 40.4287 11.9848 40.4197 11.9832C40.4106 11.9816 40.4013 11.9833 40.3936 11.9881L36.4932 14.4676C36.4888 14.4705 36.485 14.4742 36.4821 14.4785C36.4793 14.4829 36.4773 14.4878 36.4765 14.493C36.4757 14.4982 36.476 14.5035 36.4773 14.5085C36.4787 14.5136 36.4811 14.5183 36.4844 14.5223L44.1992 24.3358C44.2023 24.3398 44.2062 24.3431 44.2107 24.3455C44.2151 24.3479 44.22 24.3494 44.225 24.3498C44.23 24.3503 44.2351 24.3497 44.2399 24.3481C44.2447 24.3466 44.2491 24.344 44.2529 24.3407L47.6504 21.4159C47.6575 21.4096 47.662 21.4009 47.6629 21.3915C47.6638 21.382 47.6611 21.3726 47.6553 21.3651L40.4424 11.9969ZM40.2832 31.4657L42.916 25.951C42.931 25.9198 42.9281 25.8911 42.9072 25.8651L34.5771 15.2743C34.5531 15.2443 34.5221 15.2294 34.4844 15.2294C32.3652 15.232 30.2389 15.2316 28.1055 15.2284C27.9212 15.2277 27.751 15.2502 27.5947 15.2958C25.3786 15.937 23.1048 16.5936 20.7734 17.2655C20.7435 17.274 20.721 17.2915 20.7061 17.3182C19.5368 19.382 18.3649 21.4462 17.1904 23.5106C17.0277 23.7971 16.9248 24.0379 16.8818 24.2333C16.7109 25.0155 17.248 25.7958 18.0186 25.9745C18.4587 26.0767 18.873 25.9898 19.2617 25.7137C19.4303 25.5939 19.6146 25.356 19.8145 24.9999C20.709 23.4087 21.5684 21.8889 22.3926 20.4403C22.6025 20.0721 22.9365 19.8671 23.3809 19.8983C25.2227 20.0285 26.9977 20.1548 28.7061 20.2772C28.9502 20.2948 29.1615 20.3928 29.3398 20.5712C32.9492 24.1786 36.5833 27.8124 40.2422 31.4725C40.245 31.4754 40.2486 31.4776 40.2524 31.4789C40.2563 31.4801 40.2604 31.4804 40.2645 31.4798C40.2685 31.4791 40.2723 31.4775 40.2756 31.475C40.2788 31.4726 40.2814 31.4694 40.2832 31.4657ZM27.041 42.118C26.0527 41.1073 27.4473 39.7626 28.374 40.6835C29.1182 41.423 29.8594 42.1721 30.5977 42.9305C31.0137 43.3573 31.5684 43.5741 32.1338 43.412C33.2949 43.079 33.6494 41.7274 32.7832 40.8504C31.1497 39.1988 29.7581 37.7912 28.6084 36.6278C27.9551 35.9676 28.3389 34.9432 29.2734 34.9169C29.5147 34.91 29.7754 35.0292 29.9463 35.2001C31.2126 36.4689 32.5658 37.8371 34.0059 39.3046C34.4268 39.7333 34.8545 40.0184 35.4727 39.9315C36.7422 39.7538 37.2139 38.2665 36.3008 37.3417C34.1348 35.147 32.0443 33.0344 30.0293 31.0038C29.0391 30.0067 30.4189 28.621 31.4111 29.6151C33.5368 31.7473 35.5684 33.8029 37.5059 35.7821C37.7227 36.0034 37.9277 36.1649 38.1211 36.2665C38.7529 36.5985 39.5742 36.4081 39.999 35.8241C40.4092 35.2616 40.4102 34.4266 39.8906 33.9051C35.9154 29.9175 32.0303 26.0301 28.2354 22.243C28.2106 22.2176 28.1803 22.2036 28.1445 22.201L23.8711 21.8983C23.8576 21.8974 23.8442 21.9002 23.8323 21.9064C23.8204 21.9127 23.8105 21.922 23.8037 21.9335C23.0915 23.1717 22.3864 24.4191 21.6885 25.6756C21.3512 26.2831 21.0505 26.7186 20.7861 26.9823C19.877 27.8876 18.4775 28.2167 17.2588 27.7977C15.5371 27.2059 14.6025 25.5047 14.9814 23.7118C15.0511 23.3823 15.3047 22.8378 15.7422 22.078C16.8893 20.0845 18.0052 18.1174 19.0898 16.1766C19.0921 16.1726 19.0934 16.1681 19.0936 16.1635C19.0939 16.1589 19.0931 16.1544 19.0913 16.1501C19.0895 16.1459 19.0868 16.1421 19.0833 16.1391C19.0798 16.1361 19.0757 16.1339 19.0713 16.1327L16.2646 15.3651C16.2534 15.3619 16.2414 15.3621 16.2302 15.3658C16.2191 15.3694 16.2093 15.3763 16.2021 15.3856L7.18457 26.37C7.16699 26.3915 7.16667 26.4136 7.18359 26.4364L10.9258 31.4794C10.9291 31.4837 10.9332 31.4873 10.9379 31.4899C10.9426 31.4926 10.9478 31.4943 10.9531 31.4948C10.9585 31.4954 10.9638 31.4948 10.9689 31.4931C10.9739 31.4915 10.9785 31.4888 10.9824 31.4852C12.9932 29.6922 16.2236 30.8309 16.6572 33.4872C16.6644 33.5295 16.6891 33.5474 16.7314 33.5409C18.2471 33.3032 19.4359 33.7749 20.2979 34.9559C20.6924 35.4969 20.8952 36.159 20.9062 36.9422C20.9069 36.9807 20.9264 37.0005 20.9648 37.0018C23.2129 37.0799 24.7617 38.9579 24.3291 41.203C24.3271 41.2141 24.3296 41.2256 24.336 41.2349C24.3424 41.2442 24.3522 41.2507 24.3633 41.2528C26.708 41.6698 27.9336 44.0819 26.9082 46.2303C26.9009 46.2455 26.8984 46.2625 26.9012 46.2789C26.904 46.2954 26.9119 46.3105 26.9238 46.3221C27.4043 46.7899 27.9121 47.1083 28.6182 46.9286C29.5186 46.7001 29.9707 45.7567 29.6309 44.9042C29.5475 44.6939 29.3418 44.4263 29.0137 44.1014C28.3685 43.4628 27.7109 42.8016 27.041 42.118ZM14.3682 35.0821C14.4993 34.9486 14.6029 34.7907 14.673 34.6172C14.7431 34.4437 14.7783 34.2581 14.7767 34.071C14.7751 33.8839 14.7366 33.699 14.6635 33.5267C14.5904 33.3545 14.4841 33.1983 14.3506 33.0672L14.2517 32.97C14.1182 32.8389 13.9603 32.7353 13.7868 32.6652C13.6133 32.5951 13.4277 32.5599 13.2406 32.5615C13.0535 32.5631 12.8685 32.6016 12.6963 32.6747C12.5241 32.7478 12.3679 32.8541 12.2368 32.9876L10.9678 34.279C10.8366 34.4124 10.733 34.5704 10.6629 34.7439C10.5928 34.9174 10.5576 35.1029 10.5592 35.29C10.5609 35.4771 10.5993 35.6621 10.6725 35.8343C10.7456 36.0066 10.8519 36.1627 10.9853 36.2939L11.0842 36.3911C11.2177 36.5222 11.3757 36.6258 11.5492 36.6959C11.7227 36.766 11.9082 36.8012 12.0953 36.7996C12.2824 36.7979 12.4674 36.7595 12.6396 36.6863C12.8119 36.6132 12.968 36.5069 13.0992 36.3735L14.3682 35.0821ZM18.551 37.966C18.8222 37.6948 18.9746 37.3269 18.9746 36.9434C18.9746 36.5598 18.8222 36.1919 18.551 35.9207L18.4806 35.8502C18.2093 35.579 17.8415 35.4266 17.4579 35.4266C17.0743 35.4266 16.7064 35.579 16.4352 35.8502L14.0584 38.2271C13.7871 38.4983 13.6348 38.8662 13.6348 39.2497C13.6348 39.6333 13.7871 40.0012 14.0584 40.2724L14.1288 40.3429C14.4 40.6141 14.7679 40.7665 15.1515 40.7665C15.5351 40.7665 15.9029 40.6141 16.1742 40.3429L18.551 37.966ZM22.0503 41.4912C22.3201 41.2186 22.4706 40.8499 22.4685 40.4663C22.4665 40.0828 22.3122 39.7157 22.0396 39.4459L21.966 39.3731C21.6934 39.1033 21.3247 38.9528 20.9411 38.9548C20.5575 38.9568 20.1905 39.1111 19.9207 39.3838L17.5591 41.7702C17.2893 42.0429 17.1388 42.4115 17.1408 42.7951C17.1428 43.1787 17.2971 43.5458 17.5698 43.8156L17.6434 43.8884C17.916 44.1582 18.2847 44.3086 18.6683 44.3066C19.0518 44.3046 19.4189 44.1503 19.6887 43.8777L22.0503 41.4912ZM22.6064 47.3651C23.4941 47.3778 23.9648 46.6434 24.5391 46.1034C24.8496 45.8111 25.0609 45.5441 25.1728 45.3026C25.7441 44.0721 24.5469 42.7811 23.2793 43.2792C23.0638 43.3644 22.8555 43.5106 22.6543 43.7176C22.3079 44.0738 21.9619 44.4214 21.6162 44.7606C20.6602 45.6971 21.2275 47.3446 22.6064 47.3651Z" fill="white"/>
</g>
<defs>
<clipPath id="clip0_183_1012">
<path d="M0.00012207 9.99988C0.00012207 4.47703 4.47727 -0.00012207 10.0001 -0.00012207H40.0001C45.523 -0.00012207 50.0001 4.47703 50.0001 9.99988V39.9999C50.0001 45.5227 45.523 49.9999 40.0001 49.9999H10.0001C4.47727 49.9999 0.00012207 45.5227 0.00012207 39.9999V9.99988Z" fill="white"/>
</clipPath>
</defs>
</svg>
