<svg width="50" height="50" viewBox="0 0 50 50" fill="none" xmlns="http://www.w3.org/2000/svg">
<g clip-path="url(#clip0_183_971)">
<path d="M50 17.7771V18.2918C49.8464 23.2755 48.0599 27.4757 44.6406 30.8924C42.3568 33.1736 39.5605 34.7416 36.252 35.5965C35.6243 35.7592 34.985 35.8829 34.334 35.9676C31.2793 36.366 28.3122 36.0248 25.4326 34.9441C23.7835 34.3256 22.2526 33.4682 20.8398 32.3719C20.446 32.0665 20.0508 31.7364 19.6543 31.3816C19.643 31.3714 19.6282 31.3659 19.6129 31.3662C19.5976 31.3666 19.5831 31.3728 19.5723 31.3836L17.0098 33.9431C16.9915 33.9614 16.9915 33.9796 17.0098 33.9978C17.2819 34.27 17.5547 34.5398 17.8281 34.8074C18.1738 35.1446 18.3913 35.448 18.4805 35.7176C18.6836 36.3289 18.46 36.8767 18.0186 37.3162C14.4795 40.8487 10.8151 44.5122 7.02539 48.3064C6.61068 48.7211 6.24447 49.0359 5.92676 49.2508C5.49056 49.5444 5.01237 49.7335 4.49219 49.8181C3.00846 50.0577 1.78906 49.6108 0.833984 48.4773C0.324219 47.8725 0.046224 47.1062 0 46.1785V45.8445C0.0846354 44.8706 0.452474 44.0584 1.10352 43.408C4.85417 39.6567 8.60514 35.9051 12.3564 32.1531C12.7119 31.7976 12.9762 31.5812 13.1494 31.5037C13.9268 31.156 14.5645 31.5027 15.1289 32.1111C15.3796 32.3806 15.641 32.643 15.9131 32.8982C15.9378 32.9217 15.9622 32.9213 15.9863 32.8972L18.5322 30.3484C18.5437 30.3372 18.5503 30.3219 18.5507 30.3058C18.5511 30.2898 18.5451 30.2742 18.5342 30.2625C16.2354 27.7306 14.7627 24.8097 14.1162 21.4998C13.8457 20.1111 13.7314 18.5847 13.8076 17.1482C14.0218 13.1573 15.3786 9.62576 17.8779 6.55349C18.2887 6.04829 18.7282 5.56847 19.1963 5.11404C22.2132 2.1837 25.849 0.480252 30.1035 0.00368967C30.2266 -0.0106332 30.3564 0.0154084 30.4932 0.0818147C30.9297 0.293729 31.0254 0.828885 30.7285 1.19607C30.5977 1.35753 30.3923 1.45388 30.1123 1.48513C28.8301 1.62771 27.5654 1.90408 26.3633 2.33181C23.0312 3.51931 20.0723 5.74002 18.0986 8.69998C15.8857 12.0183 14.9652 15.6847 15.3369 19.699C15.5335 21.8214 16.1471 23.8624 17.1777 25.8221C18.1868 27.7394 19.5576 29.4178 21.29 30.8572C22.7659 32.0831 24.4033 33.0203 26.2021 33.6687C26.8701 33.9096 27.5042 34.0974 28.1045 34.2322C31.5589 35.0089 34.9183 34.7426 38.1826 33.4334C39.8597 32.7609 41.4157 31.7993 42.8506 30.5486C43.3636 30.1013 43.8271 29.6453 44.2412 29.1804C46.8193 26.2859 48.237 22.8959 48.4941 19.0105C48.5397 18.3282 48.5391 17.6554 48.4922 16.992C48.2253 13.1918 46.8551 9.87348 44.3818 7.03689C43.9456 6.53624 43.4899 6.07465 43.0146 5.65213C40.3421 3.27257 37.1921 1.87706 33.5645 1.4656C33.2539 1.43045 33.0413 1.27452 32.9268 0.99783C32.7656 0.604276 32.999 0.121854 33.4238 0.0349397C33.5807 0.00238759 33.7533 -0.000867617 33.9414 0.0251741C38.2721 0.61632 41.8753 2.3725 44.751 5.29373C47.6455 8.23448 49.3499 11.7801 49.8643 15.9304C49.9001 16.2228 49.9261 16.5333 49.9424 16.8621C49.9574 17.1668 49.9766 17.4718 50 17.7771ZM13.8115 32.8748C13.8009 32.8645 13.7868 32.8587 13.772 32.8587C13.7572 32.8587 13.743 32.8645 13.7324 32.8748L12.4912 34.0808C12.4858 34.0861 12.4815 34.0924 12.4786 34.0994C12.4756 34.1063 12.4741 34.1138 12.4741 34.1214C12.4741 34.1289 12.4756 34.1364 12.4786 34.1434C12.4815 34.1503 12.4858 34.1566 12.4912 34.1619L15.751 37.4226C15.7616 37.4333 15.776 37.4392 15.791 37.4392C15.806 37.4392 15.8204 37.4333 15.8311 37.4226L17.0566 36.1961C17.0673 36.1855 17.0732 36.1711 17.0732 36.156C17.0732 36.141 17.0673 36.1266 17.0566 36.116L13.8115 32.8748ZM14.7209 38.5331C14.7297 38.5243 14.7347 38.5124 14.7347 38.4999C14.7347 38.4875 14.7297 38.4756 14.7209 38.4668L11.4519 35.1978C11.4432 35.189 11.4312 35.1841 11.4188 35.1841C11.4064 35.1841 11.3944 35.189 11.3857 35.1978L7.75759 38.8259C7.7488 38.8347 7.74386 38.8466 7.74386 38.859C7.74386 38.8714 7.7488 38.8834 7.75759 38.8922L11.0266 42.1611C11.0354 42.1699 11.0473 42.1749 11.0597 42.1749C11.0721 42.1749 11.0841 42.1699 11.0929 42.1611L14.7209 38.5331ZM6.71664 39.9197C6.7131 39.9162 6.7089 39.9134 6.70428 39.9114C6.69966 39.9095 6.69471 39.9085 6.68971 39.9085C6.6847 39.9085 6.67975 39.9095 6.67513 39.9114C6.67051 39.9134 6.66631 39.9162 6.66277 39.9197L5.41015 41.1723C5.40661 41.1759 5.4038 41.1801 5.40189 41.1847C5.39997 41.1893 5.39899 41.1943 5.39899 41.1993C5.39899 41.2043 5.39997 41.2092 5.40189 41.2138C5.4038 41.2185 5.40661 41.2227 5.41015 41.2262L8.69156 44.5076C8.6951 44.5111 8.6993 44.514 8.70392 44.5159C8.70854 44.5178 8.71349 44.5188 8.7185 44.5188C8.7235 44.5188 8.72845 44.5178 8.73307 44.5159C8.73769 44.514 8.74189 44.5111 8.74543 44.5076L9.99806 43.255C10.0016 43.2514 10.0044 43.2472 10.0063 43.2426C10.0082 43.238 10.0092 43.233 10.0092 43.228C10.0092 43.223 10.0082 43.2181 10.0063 43.2135C10.0044 43.2088 10.0016 43.2047 9.99806 43.2011L6.71664 39.9197ZM7.64746 45.5379L4.37695 42.2674C4.36799 42.2585 4.35588 42.2535 4.34326 42.2535C4.33064 42.2535 4.31853 42.2585 4.30957 42.2674L2.21387 44.3631C1.98778 44.5891 1.80672 44.8557 1.68102 45.1476C1.55533 45.4396 1.48746 45.7513 1.48129 46.0648C1.47512 46.3783 1.53078 46.6875 1.64508 46.9748C1.75939 47.2621 1.9301 47.5218 2.14746 47.739L2.17578 47.7674C2.39307 47.9847 2.65277 48.1554 2.94005 48.2697C3.22733 48.384 3.53655 48.4397 3.85006 48.4335C4.16356 48.4274 4.47521 48.3595 4.76719 48.2338C5.05917 48.1081 5.32577 47.927 5.55176 47.701L7.64746 45.6053C7.65635 45.5963 7.66133 45.5842 7.66133 45.5716C7.66133 45.5589 7.65635 45.5468 7.64746 45.5379Z" fill="white"/>
<path d="M46.6836 18.0281C46.6836 21.9522 45.1247 25.7156 42.35 28.4904C39.5752 31.2651 35.8118 32.824 31.8877 32.824C27.9636 32.824 24.2002 31.2651 21.4254 28.4904C18.6506 25.7156 17.0918 21.9522 17.0918 18.0281C17.0918 14.104 18.6506 10.3406 21.4254 7.5658C24.2002 4.79103 27.9636 3.23218 31.8877 3.23218C35.8118 3.23218 39.5752 4.79103 42.35 7.5658C45.1247 10.3406 46.6836 14.104 46.6836 18.0281ZM45.2207 18.0281C45.2207 16.2772 44.8758 14.5434 44.2058 12.9258C43.5357 11.3081 42.5536 9.8383 41.3156 8.60022C40.0775 7.36213 38.6077 6.38003 36.99 5.70998C35.3724 5.03994 33.6386 4.69507 31.8877 4.69507C28.3516 4.69507 24.9603 6.09979 22.4598 8.60022C19.9594 11.1006 18.5547 14.4919 18.5547 18.0281C18.5547 21.5642 19.9594 24.9555 22.4598 27.4559C24.9603 29.9564 28.3516 31.3611 31.8877 31.3611C33.6386 31.3611 35.3724 31.0162 36.99 30.3462C38.6077 29.6761 40.0775 28.694 41.3156 27.4559C42.5536 26.2179 43.5357 24.748 44.2058 23.1304C44.8758 21.5128 45.2207 19.779 45.2207 18.0281Z" fill="white"/>
<path d="M31.9326 14.3787C32.083 14.2215 32.2051 14.0222 32.3594 13.8777C33.4284 12.8751 34.6735 12.5314 36.0947 12.8465C37.7246 13.2068 38.9385 14.5437 39.1621 16.2283C39.2617 16.9812 38.2803 17.3396 37.8584 16.7312C37.6738 16.4646 37.6826 16.0896 37.5527 15.782C37.2565 15.0834 36.7721 14.614 36.0996 14.3738C35.1068 14.0183 34.2161 14.1879 33.4277 14.8826C33.1367 15.1384 32.9844 15.5652 32.6719 15.7947C32.1842 16.1528 31.6872 16.1707 31.1807 15.8484C30.8486 15.6365 30.7148 15.2527 30.4463 14.9734C29.1504 13.6267 26.8369 14.0906 26.1914 15.8533C26.0215 16.3168 25.9928 16.8989 26.1055 17.5994C26.3633 19.2058 27.2627 20.5965 28.4473 21.7117C29.444 22.6511 30.5693 23.4422 31.8232 24.0847C31.8545 24.101 31.8861 24.1013 31.918 24.0857C33.5537 23.2722 35.1113 22.1189 36.2607 20.6814C36.5928 20.2664 36.8369 19.8172 37.1162 19.3767C37.2627 19.1463 37.4642 19.0268 37.7207 19.0183C38.1338 19.0047 38.5 19.3543 38.4629 19.7732C38.4486 19.9269 38.3975 20.0818 38.3096 20.2381C37.8337 21.0818 37.304 21.8002 36.7207 22.3933C35.4004 23.7358 33.889 24.7986 32.1865 25.5818C31.9645 25.684 31.7178 25.6684 31.4463 25.5349C30.1488 24.8976 28.9713 24.1264 27.9141 23.2215C26.2461 21.7937 24.9678 19.9217 24.6523 17.7654C24.5371 16.9763 24.553 16.2989 24.7002 15.7332C25.2129 13.7713 27.0957 12.5222 29.1045 12.7547C30.2471 12.8875 31.1387 13.4607 31.8389 14.3738C31.8682 14.4116 31.8994 14.4132 31.9326 14.3787Z" fill="white"/>
</g>
<defs>
<clipPath id="clip0_183_971">
<rect width="50" height="50" fill="white"/>
</clipPath>
</defs>
</svg>
