<svg width="122" height="122" viewBox="0 0 122 122" fill="none" xmlns="http://www.w3.org/2000/svg">
<rect x="2.5" y="2.5" width="117" height="117" rx="58.5" fill="#064E7F"/>
<rect x="2.5" y="2.5" width="117" height="117" rx="58.5" stroke="#F7AC00" stroke-width="5"/>
<path d="M61.3567 71.345C67.2671 71.345 72.0585 66.5537 72.0585 60.6433C72.0585 54.7329 67.2671 49.9415 61.3567 49.9415C55.4463 49.9415 50.655 54.7329 50.655 60.6433C50.655 66.5537 55.4463 71.345 61.3567 71.345Z" fill="white"/>
<path d="M101.152 57.6949C96.6684 50.7613 90.8514 44.8714 84.3313 40.6607C77.1181 35.9976 69.1542 33.5322 61.3022 33.5322C54.0975 33.5322 47.0131 35.5909 40.2455 39.6508C33.3441 43.7903 27.0916 49.8378 21.661 57.6238C21.0479 58.5037 20.7102 59.546 20.6909 60.6183C20.6716 61.6906 20.9715 62.7444 21.5525 63.6458C26.0275 70.649 31.7869 76.5473 38.2054 80.7004C45.4322 85.3822 53.2096 87.7544 61.3022 87.7544C69.2169 87.7544 77.1977 85.3093 84.3804 80.6852C90.8972 76.488 96.7023 70.5761 101.169 63.5848C101.73 62.7043 102.026 61.6814 102.023 60.6374C102.02 59.5934 101.718 58.5722 101.152 57.6949ZM61.3598 76.9099C58.1426 76.9099 54.9976 75.9559 52.3226 74.1685C49.6476 72.3811 47.5627 69.8406 46.3315 66.8683C45.1003 63.8959 44.7782 60.6252 45.4058 57.4698C46.0335 54.3144 47.5827 51.4159 49.8576 49.141C52.1326 46.8661 55.031 45.3168 58.1864 44.6892C61.3418 44.0615 64.6124 44.3837 67.5848 45.6148C70.5571 46.846 73.0976 48.931 74.885 51.606C76.6724 54.281 77.6264 57.426 77.6264 60.6433C77.6214 64.9559 75.9061 69.0906 72.8566 72.1401C69.8071 75.1896 65.6725 76.905 61.3598 76.9099Z" fill="white"/>
</svg>
