<svg width="50" height="50" viewBox="0 0 50 50" fill="none" xmlns="http://www.w3.org/2000/svg">
<path d="M23.3774 4.07143C23.3821 4.0713 23.3866 4.06999 23.3906 4.06762C23.3946 4.06526 23.3979 4.06191 23.4003 4.05791C23.4026 4.0539 23.4039 4.04937 23.404 4.04473C23.4041 4.04009 23.403 4.0355 23.4009 4.03139C22.728 2.8224 23.4302 1.3351 24.7534 1.04799C26.4526 0.679826 27.8306 2.49721 26.977 4.0226C26.9745 4.02752 26.9733 4.033 26.9734 4.03853C26.9735 4.04405 26.975 4.04943 26.9778 4.05414C26.9805 4.05885 26.9844 4.06274 26.9891 4.06543C26.9937 4.06811 26.999 4.06951 27.0044 4.06947C28.0063 4.07664 29.1089 4.07533 30.312 4.06557C30.6935 4.06231 31.006 4.10593 31.2495 4.19643C32.1216 4.51772 32.6313 5.37611 32.5806 6.31264C32.5802 6.31947 32.5812 6.32631 32.5835 6.33274C32.5858 6.33918 32.5894 6.34509 32.594 6.3501C32.5987 6.35512 32.6043 6.35915 32.6105 6.36194C32.6168 6.36473 32.6235 6.36623 32.6304 6.36635C33.3465 6.37611 34.075 6.37579 34.8159 6.36537C35.2319 6.35951 35.5672 6.40313 35.8218 6.49623C36.6372 6.79311 37.1655 7.58217 37.1665 8.44643C37.1704 15.2238 37.1698 22.118 37.1646 29.129C37.1636 30.3214 36.229 31.213 35.0366 31.2121C28.4338 31.2042 21.8524 31.2023 15.2925 31.2062C14.1489 31.2072 13.2075 30.3068 13.2075 29.1554C13.2056 22.2746 13.2049 15.3859 13.2056 8.4894C13.2056 7.21205 14.1528 6.35658 15.4028 6.36733C16.2323 6.37384 17.0145 6.37416 17.7495 6.3683C17.7552 6.36817 17.7609 6.36692 17.7661 6.36463C17.7713 6.36234 17.776 6.35905 17.78 6.35496C17.7839 6.35086 17.7869 6.34605 17.7889 6.34079C17.7909 6.33554 17.7918 6.32995 17.7915 6.32436C17.7378 5.09975 18.5894 4.07338 19.8354 4.0724C21.0581 4.0711 22.2388 4.07078 23.3774 4.07143ZM26.1938 3.05287C26.1938 2.92065 26.1678 2.78973 26.1172 2.66757C26.0666 2.54542 25.9924 2.43443 25.899 2.34093C25.8055 2.24744 25.6945 2.17328 25.5723 2.12268C25.4502 2.07208 25.3192 2.04604 25.187 2.04604C24.92 2.04604 24.6639 2.15211 24.4751 2.34093C24.2863 2.52975 24.1802 2.78584 24.1802 3.05287C24.1802 3.18509 24.2062 3.31602 24.2568 3.43817C24.3074 3.56033 24.3816 3.67132 24.4751 3.76481C24.6639 3.95363 24.92 4.05971 25.187 4.05971C25.3192 4.05971 25.4502 4.03367 25.5723 3.98307C25.6945 3.93247 25.8055 3.85831 25.899 3.76481C25.9924 3.67132 26.0666 3.56033 26.1172 3.43817C26.1678 3.31602 26.1938 3.18509 26.1938 3.05287ZM31.5386 6.12709C31.5386 5.85747 31.4315 5.5989 31.2408 5.40825C31.0502 5.2176 30.7916 5.11049 30.522 5.11049H19.8521C19.5824 5.11049 19.3239 5.2176 19.1332 5.40825C18.9426 5.5989 18.8355 5.85747 18.8355 6.12709V7.65639C18.8355 7.92601 18.9426 8.18458 19.1332 8.37523C19.3239 8.56588 19.5824 8.67299 19.8521 8.67299H30.522C30.6555 8.67299 30.7877 8.64669 30.911 8.59561C31.0343 8.54452 31.1464 8.46963 31.2408 8.37523C31.3352 8.28083 31.4101 8.16876 31.4612 8.04542C31.5123 7.92209 31.5386 7.78989 31.5386 7.65639V6.12709ZM32.5776 7.47768C32.6577 8.6017 31.7915 9.70815 30.6138 9.7101C27.1066 9.71466 23.5666 9.72052 19.9937 9.72768C18.6987 9.72963 17.7271 8.81264 17.7935 7.46303C17.7937 7.45569 17.7925 7.44836 17.7899 7.4415C17.7872 7.43464 17.7833 7.42838 17.7781 7.42309C17.773 7.4178 17.7669 7.4136 17.7602 7.41073C17.7534 7.40786 17.7461 7.40638 17.7388 7.40639C17.0239 7.41355 16.2996 7.41192 15.5659 7.40151C15.0669 7.39467 14.6431 7.47084 14.3833 7.9308C14.2928 8.09031 14.2476 8.26869 14.2476 8.46596C14.2508 15.52 14.2511 22.3999 14.2485 29.1056C14.2476 29.4972 14.4351 29.8468 14.7769 30.0402C14.924 30.1229 15.1776 30.1642 15.5376 30.1642C22.0578 30.1655 28.5662 30.1635 35.063 30.1583C35.7202 30.1583 36.1216 29.7042 36.1226 29.088C36.1271 22.2007 36.1271 15.3237 36.1226 8.45717C36.1226 8.04506 35.9106 7.6769 35.5259 7.50405C35.3683 7.43243 35.1401 7.3989 34.8413 7.40346C34.1004 7.41322 33.3687 7.41355 32.646 7.40444C32.6366 7.40426 32.6274 7.40607 32.6187 7.40974C32.6101 7.41341 32.6023 7.41887 32.5959 7.42576C32.5895 7.43265 32.5845 7.44082 32.5814 7.44976C32.5782 7.4587 32.577 7.46821 32.5776 7.47768Z" fill="white"/>
<path d="M34.1082 15.3338C34.108 15.4025 34.0944 15.4706 34.068 15.534C34.0415 15.5975 34.0029 15.6551 33.9542 15.7037C33.9055 15.7522 33.8477 15.7906 33.7842 15.8168C33.7206 15.843 33.6525 15.8564 33.5838 15.8563L30.535 15.851C30.4662 15.8509 30.3982 15.8372 30.3347 15.8108C30.2713 15.7844 30.2136 15.7457 30.1651 15.6971C30.1166 15.6484 30.0781 15.5906 30.0519 15.527C30.0258 15.4635 30.0123 15.3954 30.0125 15.3267L30.0178 12.2622C30.0179 12.1935 30.0316 12.1254 30.058 12.062C30.0844 11.9985 30.1231 11.9409 30.1718 11.8923C30.2205 11.8438 30.2782 11.8054 30.3418 11.7792C30.4053 11.753 30.4734 11.7396 30.5422 11.7397L33.591 11.745C33.6597 11.7451 33.7278 11.7588 33.7912 11.7852C33.8547 11.8116 33.9123 11.8503 33.9608 11.899C34.0094 11.9477 34.0478 12.0054 34.074 12.069C34.1002 12.1325 34.1136 12.2006 34.1135 12.2694L34.1082 15.3338ZM33.0708 12.8293C33.0708 12.8186 33.0666 12.8085 33.0591 12.8009C33.0516 12.7934 33.0414 12.7892 33.0308 12.7892H31.0933C31.0826 12.7892 31.0725 12.7934 31.0649 12.8009C31.0574 12.8085 31.0532 12.8186 31.0532 12.8293V14.7746C31.0532 14.7852 31.0574 14.7954 31.0649 14.8029C31.0725 14.8104 31.0826 14.8146 31.0933 14.8146H33.0308C33.0414 14.8146 33.0516 14.8104 33.0591 14.8029C33.0666 14.7954 33.0708 14.7852 33.0708 14.7746V12.8293Z" fill="white"/>
<path d="M27.4829 13.2785H16.7798C16.4966 13.2785 16.2671 13.508 16.2671 13.7912V13.8029C16.2671 14.086 16.4966 14.3156 16.7798 14.3156H27.4829C27.7661 14.3156 27.9956 14.086 27.9956 13.8029V13.7912C27.9956 13.508 27.7661 13.2785 27.4829 13.2785Z" fill="white"/>
<path d="M34.1081 21.4744C34.108 21.5433 34.0943 21.6115 34.0679 21.675C34.0414 21.7386 34.0027 21.7964 33.9539 21.845C33.9051 21.8936 33.8472 21.9321 33.7836 21.9584C33.7199 21.9846 33.6517 21.998 33.5828 21.9979L30.5359 21.9926C30.3969 21.9924 30.2636 21.9369 30.1654 21.8384C30.0672 21.7398 30.0122 21.6064 30.0125 21.4673L30.0178 18.4048C30.0179 18.3359 30.0316 18.2677 30.0581 18.2042C30.0845 18.1406 30.1233 18.0828 30.172 18.0342C30.2208 17.9856 30.2787 17.9471 30.3424 17.9209C30.406 17.8946 30.4743 17.8812 30.5431 17.8813L33.59 17.8866C33.7291 17.8869 33.8624 17.9423 33.9605 18.0409C34.0587 18.1394 34.1137 18.2729 34.1135 18.4119L34.1081 21.4744ZM33.0708 18.9689C33.0708 18.9578 33.0664 18.9471 33.0585 18.9392C33.0506 18.9313 33.0399 18.9269 33.0288 18.9269H31.0952C31.0841 18.9269 31.0734 18.9313 31.0655 18.9392C31.0576 18.9471 31.0532 18.9578 31.0532 18.9689V20.9103C31.0532 20.9214 31.0576 20.9321 31.0655 20.94C31.0734 20.9479 31.0841 20.9523 31.0952 20.9523H33.0288C33.0399 20.9523 33.0506 20.9479 33.0585 20.94C33.0664 20.9321 33.0708 20.9214 33.0708 20.9103V18.9689Z" fill="white"/>
<path d="M27.478 19.4152H16.7847C16.4994 19.4152 16.2681 19.6465 16.2681 19.9318V19.9435C16.2681 20.2288 16.4994 20.4601 16.7847 20.4601H27.478C27.7633 20.4601 27.9946 20.2288 27.9946 19.9435V19.9318C27.9946 19.6465 27.7633 19.4152 27.478 19.4152Z" fill="white"/>
<path d="M34.1108 27.6134C34.1108 27.751 34.0562 27.8829 33.959 27.9801C33.8617 28.0774 33.7298 28.132 33.5923 28.132H30.5337C30.3962 28.132 30.2643 28.0774 30.167 27.9801C30.0698 27.8829 30.0151 27.751 30.0151 27.6134V24.5451C30.0151 24.4075 30.0698 24.2756 30.167 24.1784C30.2643 24.0812 30.3962 24.0265 30.5337 24.0265H33.5923C33.7298 24.0265 33.8617 24.0812 33.959 24.1784C34.0562 24.2756 34.1108 24.4075 34.1108 24.5451V27.6134ZM33.0708 25.1086C33.0708 25.0977 33.0665 25.0872 33.0588 25.0795C33.0511 25.0719 33.0407 25.0675 33.0298 25.0675H31.0942C31.0834 25.0675 31.0729 25.0719 31.0652 25.0795C31.0575 25.0872 31.0532 25.0977 31.0532 25.1086V27.05C31.0532 27.0608 31.0575 27.0713 31.0652 27.079C31.0729 27.0867 31.0834 27.091 31.0942 27.091H33.0298C33.0407 27.091 33.0511 27.0867 33.0588 27.079C33.0665 27.0713 33.0708 27.0608 33.0708 27.05V25.1086Z" fill="white"/>
<path d="M27.4819 25.5636H16.7808C16.4971 25.5636 16.2671 25.7936 16.2671 26.0773V26.089C16.2671 26.3727 16.4971 26.6027 16.7808 26.6027H27.4819C27.7656 26.6027 27.9956 26.3727 27.9956 26.089V26.0773C27.9956 25.7936 27.7656 25.5636 27.4819 25.5636Z" fill="white"/>
<path d="M18.353 44.9367C18.349 44.9374 18.3451 44.9392 18.342 44.9419C18.3388 44.9445 18.3364 44.948 18.3351 44.9518C18.3338 44.9557 18.3336 44.9598 18.3345 44.9636C18.3354 44.9675 18.3375 44.971 18.3404 44.9738C18.6353 45.272 18.9321 45.5685 19.231 45.8634C19.5292 46.1577 19.5357 46.4477 19.2505 46.7336C18.5448 47.4432 17.8674 48.1196 17.2183 48.7628C17.1206 48.8596 16.9886 48.9137 16.8512 48.9134C16.7137 48.913 16.582 48.8582 16.4849 48.7609C13.731 46.007 10.9588 43.2352 8.16848 40.4455C7.92727 40.2043 7.95656 39.8859 8.18313 39.6584C8.87193 38.9689 9.54869 38.2934 10.2134 37.632C10.4556 37.3918 10.77 37.4044 10.9986 37.6339C11.5663 38.203 12.0858 38.7238 12.5571 39.1964C12.5754 39.2153 12.5959 39.2183 12.6187 39.2052C14.0672 38.3647 15.5259 37.6053 16.9946 36.9269C20.4133 35.3481 24.091 33.8133 28.0279 32.3224C28.1685 32.269 28.3169 32.2433 28.4732 32.2453C29.4269 32.2563 30.4501 32.2557 31.5425 32.2433C32.0262 32.2375 32.3967 32.2879 32.6538 32.3947C34.6861 33.2404 34.3941 35.8009 32.3345 36.3293C30.6187 36.7697 29.0103 37.505 27.4058 38.2482C27.3995 38.2511 27.394 38.2554 27.3897 38.2609C27.3855 38.2663 27.3826 38.2727 27.3813 38.2796C27.3801 38.2864 27.3805 38.2934 27.3826 38.3C27.3846 38.3066 27.3882 38.3126 27.3931 38.3175C27.5171 38.4435 27.6714 38.5011 27.8482 38.5011C29.2284 38.5005 30.5428 38.4998 31.7915 38.4992C31.8442 38.4992 31.8963 38.4872 31.9439 38.464C33.063 37.9181 34.064 37.0763 35.0034 36.2375C36.1948 35.1743 37.3465 34.0464 38.4585 32.8537C38.8042 32.4836 39.1763 32.256 39.6597 32.2531C40.3439 32.2492 41.0728 32.2482 41.8462 32.2502C42.271 32.2521 42.5005 32.6964 42.2886 33.0539C40.5366 36.0021 38.3238 39.0451 35.8609 41.4103C34.5659 42.6554 32.8306 43.9738 31.0825 44.2003C30.2583 44.3065 29.3491 44.3664 28.355 44.38C27.0086 44.3983 25.6756 44.4162 24.356 44.4337C22.4549 44.4578 20.454 44.6255 18.353 44.9367ZM26.2388 37.9142C26.2505 37.7345 26.3794 37.5783 26.5396 37.5021C27.5383 37.0314 28.5725 36.5753 29.6421 36.1339C30.5054 35.7772 31.3397 35.4995 32.145 35.3009C33.2095 35.0382 33.2896 33.7218 32.2622 33.3654C32.0878 33.3042 31.8745 33.2755 31.6226 33.2795C30.6232 33.2931 29.6454 33.2931 28.689 33.2795C28.534 33.2775 28.3833 33.3042 28.2368 33.3595C24.2883 34.855 20.5187 36.4396 16.9282 38.1134C15.7251 38.6746 14.5428 39.2931 13.3814 39.9689C13.3777 39.9709 13.3746 39.9737 13.3723 39.9772C13.37 39.9806 13.3686 39.9846 13.3681 39.9888C13.3676 39.9929 13.3681 39.9972 13.3696 40.0012C13.3711 40.0052 13.3734 40.0089 13.3765 40.0119L17.354 43.9904C17.3833 44.0197 17.4182 44.0308 17.4585 44.0236C19.689 43.6447 21.9448 43.435 24.2261 43.3947C25.454 43.3732 26.7355 43.3569 28.0708 43.3459C29.0871 43.338 30.037 43.2804 30.9204 43.173C32.565 42.9738 34.1665 41.6349 35.315 40.5041C37.4282 38.425 39.3101 35.8615 40.8921 33.3322C40.8949 33.3278 40.8964 33.3227 40.8966 33.3175C40.8968 33.3123 40.8956 33.3071 40.8931 33.3026C40.8906 33.298 40.8869 33.2942 40.8825 33.2915C40.878 33.2888 40.8729 33.2873 40.8677 33.2873C40.4966 33.2847 40.1096 33.286 39.7066 33.2912C39.5503 33.2931 39.4165 33.354 39.3052 33.4738C37.8316 35.0607 36.2017 36.6584 34.4673 38.0539C33.8091 38.5832 33.0708 39.1007 32.2984 39.4425C32.1467 39.5096 31.9878 39.5425 31.8218 39.5412C30.6135 39.5347 29.2889 39.5343 27.8482 39.5402C26.9419 39.5431 26.1802 38.8273 26.2388 37.9142ZM18.1722 46.3394C18.1801 46.3315 18.1845 46.3208 18.1845 46.3097C18.1845 46.2985 18.1801 46.2879 18.1722 46.28L10.6357 38.7435C10.6278 38.7356 10.6172 38.7312 10.606 38.7312C10.5949 38.7312 10.5842 38.7356 10.5763 38.7435L9.28779 40.032C9.27992 40.0399 9.27549 40.0506 9.27549 40.0617C9.27549 40.0729 9.27992 40.0835 9.28779 40.0914L16.8243 47.6279C16.8322 47.6358 16.8428 47.6402 16.854 47.6402C16.8651 47.6402 16.8758 47.6358 16.8837 47.6279L18.1722 46.3394Z" fill="white"/>
</svg>
