<svg width="49" height="49" viewBox="0 0 49 49" fill="none" xmlns="http://www.w3.org/2000/svg">
<path d="M9.1875 3.0625H39.8125C43.1813 3.0625 45.9375 5.81875 45.9375 9.1875V39.8125C45.9375 43.1813 43.1813 45.9375 39.8125 45.9375H9.1875C5.81875 45.9375 3.0625 43.1813 3.0625 39.8125V9.1875C3.0625 5.81875 5.81875 3.0625 9.1875 3.0625Z" fill="white"/>
<path fill-rule="evenodd" clip-rule="evenodd" d="M20.2125 24.6531V39.5063C20.2125 39.6594 20.3656 39.9656 20.6719 39.9656H26.6437C26.95 39.9656 27.1031 39.8125 27.1031 39.5063V24.5H31.3906C31.5437 24.5 31.85 24.3469 31.85 24.1938L32.3094 19.6C32.3094 19.2938 32.1562 19.1406 31.85 19.1406H27.1031V15.925C27.1031 15.1594 27.7156 14.5469 28.6344 14.5469H32.0031C32.3094 14.5469 32.4625 14.3938 32.4625 14.0875V9.64688C32.1562 9.34063 32.0031 9.1875 31.6969 9.1875H26.1844C22.9687 9.1875 20.2125 11.6375 20.2125 14.7V19.1406H17.3031C16.9969 19.1406 16.8438 19.2938 16.8438 19.6V24.1938C16.8438 24.3469 16.9969 24.6531 17.3031 24.6531H20.2125Z" fill="#101B22"/>
</svg>
