<svg width="49" height="49" viewBox="0 0 49 49" fill="none" xmlns="http://www.w3.org/2000/svg">
<rect width="49" height="49" fill="#101B22"/>
<path d="M9.1875 3.0625H39.8125C43.1813 3.0625 45.9375 5.81875 45.9375 9.1875V39.8125C45.9375 43.1813 43.1813 45.9375 39.8125 45.9375H9.1875C5.81875 45.9375 3.0625 43.1813 3.0625 39.8125V9.1875C3.0625 5.81875 5.81875 3.0625 9.1875 3.0625Z" fill="white"/>
<path d="M32.6156 14.853C31.6969 14.853 30.7781 15.6187 30.7781 16.6905C30.7781 17.7624 31.5438 18.528 32.6156 18.528C33.6875 18.528 34.4531 17.7624 34.4531 16.6905C34.3 15.6187 33.5344 14.853 32.6156 14.853Z" fill="#101B22"/>
<path d="M24.5 17.1499C20.3656 17.1499 16.9969 20.5187 16.9969 24.653C16.9969 28.7874 20.3656 32.1562 24.5 32.1562C28.6344 32.1562 32.0031 28.7874 32.0031 24.653C32.1563 20.5187 28.7875 17.1499 24.5 17.1499ZM24.5 29.553C21.8969 29.553 19.6 27.4093 19.6 24.653C19.6 22.0499 21.7438 19.753 24.5 19.753C27.1031 19.753 29.4 21.8968 29.4 24.653C29.4 27.4093 27.2563 29.553 24.5 29.553Z" fill="#101B22"/>
<path d="M30.625 9.1875H18.375C13.3219 9.1875 9.1875 13.3219 9.1875 18.375V30.625C9.1875 35.6781 13.3219 39.8125 18.375 39.8125H30.625C35.6781 39.8125 39.8125 35.6781 39.8125 30.625V18.375C39.8125 13.3219 35.6781 9.1875 30.625 9.1875ZM36.9031 30.625C36.9031 34.1469 33.9937 36.9031 30.625 36.9031H18.375C14.8531 36.9031 12.0969 33.9937 12.0969 30.625V18.375C12.0969 14.8531 15.0062 12.0969 18.375 12.0969H30.625C34.1469 12.0969 36.9031 15.0062 36.9031 18.375V30.625Z" fill="#101B22"/>
</svg>
