<svg width="49" height="49" viewBox="0 0 49 49" fill="none" xmlns="http://www.w3.org/2000/svg">
<path fill-rule="evenodd" clip-rule="evenodd" d="M9.1875 3.0625C7.56305 3.0625 6.00513 3.70781 4.85647 4.85647C3.70781 6.00513 3.0625 7.56305 3.0625 9.1875V39.8125C3.0625 41.437 3.70781 42.9949 4.85647 44.1435C6.00513 45.2922 7.56305 45.9375 9.1875 45.9375H39.8125C41.437 45.9375 42.9949 45.2922 44.1435 44.1435C45.2922 42.9949 45.9375 41.437 45.9375 39.8125V9.1875C45.9375 7.56305 45.2922 6.00513 44.1435 4.85647C42.9949 3.70781 41.437 3.0625 39.8125 3.0625H9.1875ZM12.5624 16.2221C13.533 16.2221 14.4638 15.8365 15.1502 15.1502C15.8365 14.4638 16.2221 13.533 16.2221 12.5624C16.2221 11.5918 15.8365 10.6609 15.1502 9.97459C14.4638 9.28826 13.533 8.90269 12.5624 8.90269C11.5918 8.90269 10.6609 9.28826 9.97459 9.97459C9.28826 10.6609 8.90269 11.5918 8.90269 12.5624C8.90269 13.533 9.28826 14.4638 9.97459 15.1502C10.6609 15.8365 11.5918 16.2221 12.5624 16.2221ZM15.6249 39.2398V19.0916H9.49988V39.2398H15.6249ZM19.6919 19.0916H25.8169V21.7897C26.7203 20.3748 28.7048 18.4699 32.3951 18.4699C36.799 18.4699 39.1908 21.3885 39.1908 26.9408C39.1908 27.2073 39.2153 28.4231 39.2153 28.4231V39.2368H33.0903V28.4261C33.0903 26.9408 32.7779 24.0222 29.4766 24.0222C26.1721 24.0222 25.8934 27.6911 25.8169 30.0921V39.2368H19.6919V19.0916Z" fill="white"/>
</svg>
