<?xml version="1.0" encoding="UTF-8" standalone="no"?>
<!DOCTYPE svg PUBLIC "-//W3C//DTD SVG 1.1//EN" "http://www.w3.org/Graphics/SVG/1.1/DTD/svg11.dtd">
<svg xmlns="http://www.w3.org/2000/svg" version="1.1" viewBox="0.00 0.00 60.00 60.00">
<path fill="#f5ad00" d="
  M 19.42 20.08
  Q 19.40 23.40 22.18 25.83
  Q 27.46 30.46 33.35 35.01
  Q 36.66 37.57 34.07 40.86
  L 32.99 42.22
  Q 30.25 45.70 26.89 42.81
  Q 22.76 39.27 18.27 35.93
  C 13.15 32.13 9.66 27.26 9.71 20.95
  Q 9.74 17.05 11.73 13.64
  C 14.83 8.35 19.46 3.63 25.60 3.09
  Q 31.84 2.55 37.01 6.39
  Q 42.00 10.10 48.75 15.70
  Q 52.10 18.48 49.27 21.80
  L 48.71 22.46
  Q 45.93 25.72 42.53 23.12
  Q 33.93 16.54 31.52 14.80
  Q 29.71 13.50 27.31 13.08
  C 23.23 12.39 19.44 16.39 19.42 20.08
  Z"
/>
<path fill="#064e7e" d="
  M 46.12 45.44
  A 14.41 14.25 -8.5 0 1 43.56 48.86
  C 41.83 50.56 40.72 52.53 38.75 54.02
  C 33.10 58.29 25.97 57.56 20.65 53.47
  Q 15.30 49.37 8.80 44.11
  Q 5.73 41.64 8.19 38.49
  Q 8.19 38.48 9.04 37.39
  Q 11.56 34.17 14.77 36.69
  Q 19.10 40.09 23.69 43.61
  C 28.07 46.97 32.41 49.21 36.33 44.26
  C 39.92 39.72 37.43 35.66 33.61 32.59
  Q 28.45 28.45 24.05 24.36
  Q 21.48 21.97 23.97 18.93
  Q 24.07 18.80 24.85 17.85
  Q 27.41 14.72 30.55 17.27
  Q 36.23 21.91 41.64 26.16
  C 47.25 30.57 49.69 38.81 46.12 45.44
  Z"
/>
</svg>
