<?xml version="1.0" encoding="UTF-8"?>
<!DOCTYPE svg PUBLIC "-//W3C//DTD SVG 1.1//EN" "http://www.w3.org/Graphics/SVG/1.1/DTD/svg11.dtd">
<svg xmlns="http://www.w3.org/2000/svg" version="1.1" width="812px" height="318px" style="shape-rendering:geometricPrecision; text-rendering:geometricPrecision; image-rendering:optimizeQuality; fill-rule:evenodd; clip-rule:evenodd" xmlns:xlink="http://www.w3.org/1999/xlink">
<g><path style="opacity:0.999" fill="#f7ac00" d="M 101.5,-0.5 C 111.833,-0.5 122.167,-0.5 132.5,-0.5C 146.981,2.73255 160.648,8.23255 173.5,16C 199.167,36.3333 224.833,56.6667 250.5,77C 256.346,83.5788 257.846,91.0788 255,99.5C 250.731,109.11 244.231,116.943 235.5,123C 228.433,127.599 221.433,127.599 214.5,123C 191.167,105 167.833,87 144.5,69C 128.205,58.0401 111.205,56.7068 93.5,65C 65.838,88.7659 65.5046,113.099 92.5,138C 114.833,156.333 137.167,174.667 159.5,193C 164.629,199.074 165.796,205.907 163,213.5C 158.312,225.523 150.145,234.356 138.5,240C 130.89,241.82 124.223,240.154 118.5,235C 95.8333,217 73.1667,199 50.5,181C 4.11395,135.182 1.61395,87.0153 43,36.5C 58.5606,17.7417 78.0606,5.4084 101.5,-0.5 Z"/></g>
<g><path style="opacity:0.986" fill="#064d7e" d="M 152.5,317.5 C 142.5,317.5 132.5,317.5 122.5,317.5C 106.303,313.821 91.3029,307.321 77.5,298C 53.4547,278.286 29.1213,258.953 4.5,240C 2.68589,237.521 1.01922,235.021 -0.5,232.5C -0.5,227.5 -0.5,222.5 -0.5,217.5C 5.33767,205.496 14.3377,196.663 26.5,191C 29.1667,190.333 31.8333,190.333 34.5,191C 60.5141,209.016 85.8474,228.016 110.5,248C 127.676,259.324 145.343,260.324 163.5,251C 187.331,229.693 188.664,207.027 167.5,183C 142.204,162.761 117.371,141.928 93,120.5C 90.7798,116.405 90.1131,112.072 91,107.5C 95.0864,93.1309 103.92,82.9642 117.5,77C 122.768,75.932 127.768,76.5987 132.5,79C 154.5,96.3333 176.5,113.667 198.5,131C 248.505,173.322 254.671,221.155 217,274.5C 205.1,290.415 190.267,302.582 172.5,311C 165.821,313.495 159.154,315.662 152.5,317.5 Z"/></g>
<g><path style="opacity:0.944" fill="#064d7e" d="M 291.5,178.5 C 307.273,177.199 317.273,184.033 321.5,199C 319.502,206.584 315.335,208.084 309,203.5C 304.089,192.717 296.756,190.717 287,197.5C 282.967,205.06 284.467,211.227 291.5,216C 299.76,218.799 307.76,222.132 315.5,226C 334.102,243.988 334.102,261.988 315.5,280C 297.584,289.683 282.084,286.85 269,271.5C 265.271,266.726 263.938,261.393 265,255.5C 269.384,250.362 273.718,250.362 278,255.5C 283.061,269.611 292.561,273.778 306.5,268C 315.339,260.471 316.839,251.638 311,241.5C 309.442,239.641 307.609,238.141 305.5,237C 296.085,233.79 287.085,229.79 278.5,225C 265.833,210.01 266.833,196.01 281.5,183C 284.815,181.17 288.149,179.67 291.5,178.5 Z"/></g>
<g><path style="opacity:0.953" fill="#064d7f" d="M 368.5,208.5 C 384.01,206.013 396.843,210.679 407,222.5C 410.965,228.211 410.132,233.045 404.5,237C 390.833,246.667 377.167,256.333 363.5,266C 375.745,273.346 386.579,271.513 396,260.5C 397.792,255.775 399.959,251.275 402.5,247C 412.127,244.625 415.96,248.458 414,258.5C 403.299,283.073 385.132,291.24 359.5,283C 342.003,273.172 334.836,258.339 338,238.5C 342.792,222.874 352.959,212.874 368.5,208.5 Z M 373.5,223.5 C 379.106,223.314 384.106,224.814 388.5,228C 388.167,228.5 387.833,229 387.5,229.5C 377.167,237 366.833,244.5 356.5,252C 355.5,252.667 354.5,252.667 353.5,252C 351.718,236.61 358.385,227.11 373.5,223.5 Z"/></g>
<g><path style="opacity:0.951" fill="#064d7e" d="M 462.5,317.5 C 460.833,317.5 459.167,317.5 457.5,317.5C 450.088,312.654 449.754,307.488 456.5,302C 472.061,301.426 480.894,293.593 483,278.5C 470.424,287.343 456.924,288.843 442.5,283C 423.367,271.555 416.867,255.055 423,233.5C 429.831,217.52 441.998,209.187 459.5,208.5C 467.561,208.412 475.061,210.412 482,214.5C 483.812,212.688 485.645,210.855 487.5,209C 493.084,207.263 496.917,209.096 499,214.5C 499.667,236.833 499.667,259.167 499,281.5C 494.865,301.802 482.699,313.802 462.5,317.5 Z M 452.5,224.5 C 466.303,221.984 476.136,226.984 482,239.5C 485.379,252.571 481.213,262.404 469.5,269C 444.323,273.157 433.823,262.657 438,237.5C 441.329,231.43 446.162,227.096 452.5,224.5 Z"/></g>
<g><path style="opacity:0.952" fill="#064d7e" d="M 550.5,317.5 C 548.833,317.5 547.167,317.5 545.5,317.5C 538.526,313.131 537.859,307.964 543.5,302C 559.57,301.913 568.737,294.079 571,278.5C 558.4,287.343 544.9,288.843 530.5,283C 510.61,271.328 504.11,254.495 511,232.5C 521.254,212.516 537.421,205.016 559.5,210C 562.954,211.302 566.288,212.802 569.5,214.5C 571.624,212.879 573.624,211.046 575.5,209C 579.793,207.798 583.293,208.965 586,212.5C 586.667,236.833 586.667,261.167 586,285.5C 580.883,303.791 569.05,314.457 550.5,317.5 Z M 540.5,224.5 C 553.127,222.415 562.627,226.748 569,237.5C 573.673,251.151 569.84,261.651 557.5,269C 543.87,273.425 533.37,269.592 526,257.5C 521.075,242.082 525.909,231.082 540.5,224.5 Z"/></g>
<g><path style="opacity:0.956" fill="#064d7f" d="M 682.5,208.5 C 686.516,207.9 690.016,208.9 693,211.5C 702.212,207.412 711.379,207.579 720.5,212C 722.976,213.309 724.976,215.142 726.5,217.5C 723.979,220.854 720.979,223.688 717.5,226C 715.833,226.667 714.167,226.667 712.5,226C 705.506,222.547 699.673,224.047 695,230.5C 693.724,247.447 693.057,264.447 693,281.5C 688.748,287.653 684.081,287.986 679,282.5C 678.333,259.167 678.333,235.833 679,212.5C 680.376,211.295 681.542,209.962 682.5,208.5 Z"/></g>
<g><path style="opacity:0.948" fill="#064d7f" d="M 811.5,237.5 C 811.5,244.167 811.5,250.833 811.5,257.5C 801.051,282.722 782.718,291.222 756.5,283C 737.851,272.867 730.685,257.367 735,236.5C 743.111,215.693 758.277,206.527 780.5,209C 796.13,212.799 806.463,222.299 811.5,237.5 Z M 770.5,223.5 C 787.98,224.808 796.48,234.142 796,251.5C 791.894,265.811 782.394,271.978 767.5,270C 753.887,265.273 748.054,255.773 750,241.5C 753.363,231.422 760.197,225.422 770.5,223.5 Z"/></g>
<g><path style="opacity:0.962" fill="#064d7f" d="M 602.5,208.5 C 606.803,207.796 610.303,209.13 613,212.5C 613.064,227.887 613.731,243.22 615,258.5C 621.629,270.82 631.129,273.653 643.5,267C 646.433,264.736 648.6,261.902 650,258.5C 650.333,243.833 650.667,229.167 651,214.5C 654.368,207.825 659.035,206.825 665,211.5C 666.646,234.745 666.979,258.079 666,281.5C 663.774,285.861 660.274,287.361 655.5,286C 653.983,284.315 652.316,282.815 650.5,281.5C 634.582,289.526 620.082,287.526 607,275.5C 603.274,270.714 600.607,265.381 599,259.5C 598.333,243.833 598.333,228.167 599,212.5C 600.376,211.295 601.542,209.962 602.5,208.5 Z"/></g>
</svg>
