<svg width="50" height="59" viewBox="0 0 50 59" fill="none" xmlns="http://www.w3.org/2000/svg">
<path d="M32.25 50.67V57.75C32.25 58.0833 32.0833 58.25 31.75 58.25H9.76C9.69635 58.25 9.6353 58.2247 9.5903 58.1797C9.54529 58.1347 9.52 58.0736 9.52 58.01V40.78C9.52 40.5067 9.41334 40.28 9.2 40.1C-3.91 28.88 -0.969997 8.02 15.5 2.01C22.61 -0.580004 30.99 0.989995 36.69 5.88C41.57 10.08 44.0967 15.46 44.27 22.02C44.2967 23.0267 44.5867 23.9867 45.14 24.9C46.5067 27.1733 47.83 29.42 49.11 31.64C50.97 34.86 49.28 37.62 45.38 36.74C44.66 36.58 44.29 36.8667 44.27 37.6C44.21 39.46 44.5 41.55 43.96 43.34C42.54 48.1 39.0133 50.2 33.38 49.64C32.6267 49.5667 32.25 49.91 32.25 50.67ZM33.39 22.65C32.97 22.6433 32.7333 22.43 32.68 22.01C32.2 17.97 28.42 18.05 25.92 15.87C25.6467 15.63 25.3233 15.5067 24.95 15.5L22.97 15.48C22.5967 15.4733 22.43 15.6567 22.47 16.03L22.7 18.27C22.7533 18.7833 22.9867 18.8833 23.4 18.57C24 18.1167 24.6333 17.93 25.3 18.01C25.7467 18.0633 25.89 18.3033 25.73 18.73C25.4833 19.35 25.0133 19.7033 24.32 19.79C22.7267 19.9833 21.4467 20.7233 20.48 22.01C20.4465 22.0532 20.4045 22.0891 20.3568 22.1153C20.309 22.1415 20.2566 22.1575 20.2028 22.1622C20.1491 22.1669 20.0952 22.1603 20.0448 22.1427C19.9944 22.125 19.9484 22.0969 19.91 22.06L19.68 21.83C19.3 21.47 19.2867 21.0967 19.64 20.71C21.1867 19.0233 21.44 17.2233 20.4 15.31C20.3119 15.153 20.1915 15.0166 20.0467 14.9097C19.9018 14.8028 19.736 14.7279 19.56 14.69C16.7 14.07 13.65 16.07 13.47 19.01C13.4658 19.0825 13.4767 19.1551 13.5022 19.223C13.5277 19.291 13.5672 19.3529 13.6181 19.4047C13.6689 19.4565 13.7301 19.4971 13.7976 19.5239C13.8651 19.5506 13.9375 19.5629 14.01 19.56C14.91 19.53 15.78 18.96 16.63 19.26C17.0567 19.4067 17.3233 19.6867 17.43 20.1C17.4584 20.206 17.4628 20.3169 17.443 20.4248C17.4232 20.5327 17.3797 20.6349 17.3156 20.7239C17.2515 20.8129 17.1683 20.8866 17.0723 20.9395C16.9762 20.9924 16.8695 21.0234 16.76 21.03L14.79 21.15C14.6586 21.1584 14.5328 21.2065 14.4293 21.2879C14.3259 21.3693 14.2496 21.4803 14.2105 21.606C14.1715 21.7318 14.1716 21.8664 14.2108 21.9921C14.25 22.1179 14.3264 22.2287 14.43 22.31C15.6433 23.2767 16.7633 24.21 17.79 25.11C19.9 26.96 19.28 31.37 19.25 33.94C19.25 34.3 19.43 34.48 19.79 34.48L21.99 34.49C22.3233 34.49 22.4967 34.3267 22.51 34C22.61 31.79 22.1 28.98 23.13 26.98C25.67 22.01 32.74 25.98 36.73 23.51C39.74 21.65 40.21 17.99 37.38 15.72C37.08 15.4733 36.8967 15.1567 36.83 14.77C36.4033 12.0833 34.8467 10.5633 32.16 10.21C32.0011 10.1879 31.8493 10.1305 31.716 10.0423C31.5827 9.95397 31.4713 9.83699 31.39 9.7C29.8233 7.11333 27.5867 6.39333 24.68 7.54C24.3533 7.67333 24.0333 7.65 23.72 7.47C21.4533 6.19 19.3567 6.33333 17.43 7.89999C17.13 8.14666 16.7867 8.25333 16.4 8.22C14.1533 8.02666 12.4833 8.94333 11.39 10.97C11.254 11.2161 11.0385 11.4069 10.78 11.51C8.12667 12.57 6.97334 14.4767 7.32 17.23C7.36521 17.605 7.27682 17.9869 7.07 18.31C5.59 20.65 6.76 22.13 7.41 24.35C8.01 26.41 9.9 28.12 11.86 28.79C14.21 29.58 14.79 32.13 14.75 34.32C14.75 34.42 14.8 34.47 14.9 34.47L17.68 34.48C17.8533 34.48 17.9433 34.39 17.95 34.21C17.9967 32.2567 17.9767 30.3133 17.89 28.38C17.81 26.44 16.09 25.39 14.64 24.47C14.28 24.2433 13.97 24.3 13.71 24.64C13.2833 25.18 12.7333 25.5767 12.06 25.83C11.8989 25.8945 11.7167 25.8945 11.55 25.83C11.29 25.73 11.1233 25.59 11.05 25.41C10.9567 25.1767 11.0033 24.98 11.19 24.82L12.8 23.39C13.0667 23.15 13.17 22.8533 13.11 22.5C12.8433 21.04 12.2033 19.8 11.19 18.78C10.27 17.85 9.96 17.01 9.84 15.84C9.8 15.4067 9.98 15.1067 10.38 14.94L10.71 14.81C10.9433 14.71 11.0933 14.7833 11.16 15.03L11.79 17.25C11.9833 17.93 12.1933 17.9367 12.42 17.27C12.9267 15.8167 13.8167 14.79 15.09 14.19C15.4633 14.01 15.4933 13.7867 15.18 13.52C14.82 13.2133 14.4133 12.9733 13.96 12.8C13.8164 12.7412 13.6914 12.6405 13.6 12.51C13.3467 12.1233 13.32 11.82 13.52 11.6C13.8133 11.2733 14.1767 11.1533 14.61 11.24C15.4633 11.42 16.1067 11.89 16.54 12.65C16.7733 13.05 17.1167 13.2067 17.57 13.12C19.39 12.7667 20.3267 11.7367 20.38 10.03C20.4 9.56333 20.64 9.35333 21.1 9.39999L21.51 9.43999C21.6141 9.45173 21.7114 9.49717 21.7872 9.56939C21.8631 9.6416 21.9132 9.73664 21.93 9.84C22.1167 11.0333 21.8533 12.0767 21.14 12.97C20.8867 13.29 20.96 13.4933 21.36 13.58C24.7667 14.3267 27.1667 13.67 28.56 11.61C28.8267 11.21 29.18 11.1133 29.62 11.32L29.9 11.45C30.2267 11.61 30.2967 11.8433 30.11 12.15C29.5033 13.1833 28.6933 14.0133 27.68 14.64C27.6156 14.6798 27.5628 14.7361 27.5271 14.8028C27.4914 14.8696 27.4742 14.9444 27.4773 15.0192C27.4804 15.094 27.5036 15.1662 27.5446 15.2279C27.5856 15.2897 27.6427 15.3388 27.71 15.37C29.95 16.45 32.07 16.4533 34.07 15.38C34.1751 15.3225 34.2944 15.2971 34.4135 15.3069C34.5327 15.3166 34.6468 15.3612 34.7418 15.4352C34.8369 15.5091 34.9091 15.6093 34.9495 15.7237C34.99 15.8381 34.9971 15.9619 34.97 16.08C34.89 16.4 34.7333 16.6767 34.5 16.91C34.03 17.37 33.59 17.35 33.03 17.59C32.57 17.7833 32.5067 18.0633 32.84 18.43C33.8733 19.5767 34.3233 20.8367 34.19 22.21C34.1633 22.5167 33.9967 22.6667 33.69 22.66L33.39 22.65Z" fill="white"/>
</svg>
