<svg width="69" height="68" viewBox="0 0 69 68" fill="none" xmlns="http://www.w3.org/2000/svg">
<path d="M21.66 26.05L11.47 26.07C10.7168 26.07 9.99442 25.7697 9.46181 25.2353C8.92921 24.7008 8.63 23.9759 8.63 23.22V8.06C8.63 7.31474 8.92605 6.60001 9.45303 6.07303C9.98 5.54605 10.6947 5.25 11.44 5.25H58.28C59.0173 5.25 59.7244 5.54289 60.2458 6.06424C60.7671 6.58559 61.06 7.2927 61.06 8.03V23.5C61.06 24.179 60.7903 24.8301 60.3102 25.3102C59.8301 25.7903 59.179 26.06 58.5 26.06H47.33C46.93 26.06 46.73 26.2633 46.73 26.67V29.79C46.73 30.6833 46.4133 30.8133 45.78 30.18L41.99 26.39C41.7633 26.1633 41.49 26.05 41.17 26.05L37.92 26.08C37.5267 26.08 37.2367 26.25 37.05 26.59L34.83 30.57C34.6167 30.9633 34.3967 30.9633 34.17 30.57L31.91 26.55C31.8272 26.4064 31.7091 26.2867 31.5671 26.2026C31.4252 26.1185 31.2642 26.0728 31.1 26.07L27.87 26.05C27.4833 26.0433 27.1533 26.18 26.88 26.46L22.89 30.56C22.49 30.9733 22.2867 30.89 22.28 30.31L22.26 26.66C22.26 26.2533 22.06 26.05 21.66 26.05ZM46.06 24.64H58.28C58.6407 24.64 58.9866 24.4967 59.2417 24.2417C59.4967 23.9866 59.64 23.6407 59.64 23.28L59.65 8.12C59.65 7.74604 59.5014 7.38741 59.237 7.12298C58.9726 6.85855 58.614 6.71 58.24 6.71H11.44C11.2614 6.71 11.0846 6.74492 10.9195 6.81276C10.7545 6.88061 10.6046 6.98005 10.4783 7.10541C10.352 7.23076 10.2519 7.37959 10.1835 7.54338C10.1152 7.70717 10.08 7.88272 10.08 8.06L10.07 23.26C10.07 23.4421 10.1058 23.6223 10.1753 23.7904C10.2447 23.9585 10.3465 24.1111 10.4748 24.2394C10.6031 24.3676 10.7553 24.4691 10.9227 24.5378C11.09 24.6066 11.2693 24.6413 11.45 24.64H23.05C23.4967 24.64 23.72 24.86 23.72 25.3V26.72C23.7267 27.4133 23.9667 27.5067 24.44 27L26.29 25.03C26.5367 24.77 26.8367 24.64 27.19 24.64H32C32.4 24.64 32.69 24.82 32.87 25.18L34.16 27.78C34.1868 27.836 34.2286 27.8831 34.2808 27.9164C34.3331 27.9497 34.3939 27.9678 34.4566 27.9688C34.5194 27.9698 34.5818 27.9537 34.637 27.9222C34.6922 27.8907 34.7382 27.845 34.77 27.79L36.2 25.21C36.4067 24.83 36.73 24.64 37.17 24.64L41.66 24.63C42.0933 24.63 42.4633 24.7867 42.77 25.1L44.75 27.12C45.0833 27.4667 45.2533 27.4 45.26 26.92V25.44C45.2667 24.9067 45.5333 24.64 46.06 24.64Z" fill="white"/>
<path d="M49.17 11.73H16.13C15.9257 11.73 15.76 11.8956 15.76 12.1V12.82C15.76 13.0243 15.9257 13.19 16.13 13.19H49.17C49.3743 13.19 49.54 13.0243 49.54 12.82V12.1C49.54 11.8956 49.3743 11.73 49.17 11.73Z" fill="white"/>
<path d="M53.37 15.29H16.33C15.9379 15.29 15.62 15.6079 15.62 16V16.04C15.62 16.4322 15.9379 16.75 16.33 16.75H53.37C53.7621 16.75 54.08 16.4322 54.08 16.04V16C54.08 15.6079 53.7621 15.29 53.37 15.29Z" fill="white"/>
<path d="M42.08 18.9399H16.14C15.9191 18.9399 15.74 19.119 15.74 19.3399V19.9599C15.74 20.1809 15.9191 20.3599 16.14 20.3599H42.08C42.3009 20.3599 42.48 20.1809 42.48 19.9599V19.3399C42.48 19.119 42.3009 18.9399 42.08 18.9399Z" fill="white"/>
<path d="M25.7 40.43C25.7 41.9099 25.1121 43.3292 24.0657 44.3756C23.0192 45.4221 21.5999 46.01 20.12 46.01C18.6401 46.01 17.2208 45.4221 16.1743 44.3756C15.1279 43.3292 14.54 41.9099 14.54 40.43C14.54 38.9501 15.1279 37.5308 16.1743 36.4843C17.2208 35.4379 18.6401 34.85 20.12 34.85C21.5999 34.85 23.0192 35.4379 24.0657 36.4843C25.1121 37.5308 25.7 38.9501 25.7 40.43ZM24.22 40.43C24.22 39.3399 23.787 38.2945 23.0162 37.5238C22.2454 36.753 21.2 36.32 20.11 36.32C19.02 36.32 17.9746 36.753 17.2038 37.5238C16.433 38.2945 16 39.3399 16 40.43C16 41.52 16.433 42.5654 17.2038 43.3362C17.9746 44.107 19.02 44.54 20.11 44.54C21.2 44.54 22.2454 44.107 23.0162 43.3362C23.787 42.5654 24.22 41.52 24.22 40.43Z" fill="white"/>
<path d="M55.92 40.2701C55.92 41.7526 55.3311 43.1745 54.2827 44.2228C53.2344 45.2711 51.8126 45.8601 50.33 45.8601C48.8474 45.8601 47.4256 45.2711 46.3773 44.2228C45.3289 43.1745 44.74 41.7526 44.74 40.2701C44.74 39.536 44.8846 38.8091 45.1655 38.1309C45.4464 37.4526 45.8582 36.8364 46.3773 36.3173C46.8964 35.7982 47.5126 35.3865 48.1908 35.1056C48.869 34.8246 49.5959 34.6801 50.33 34.6801C51.0641 34.6801 51.791 34.8246 52.4692 35.1056C53.1474 35.3865 53.7637 35.7982 54.2827 36.3173C54.8018 36.8364 55.2136 37.4526 55.4945 38.1309C55.7754 38.8091 55.92 39.536 55.92 40.2701ZM54.43 40.2801C54.43 39.19 53.997 38.1446 53.2262 37.3738C52.4554 36.6031 51.41 36.1701 50.32 36.1701C49.23 36.1701 48.1846 36.6031 47.4138 37.3738C46.643 38.1446 46.21 39.19 46.21 40.2801C46.21 41.3701 46.643 42.4155 47.4138 43.1863C48.1846 43.957 49.23 44.3901 50.32 44.3901C51.41 44.3901 52.4554 43.957 53.2262 43.1863C53.997 42.4155 54.43 41.3701 54.43 40.2801Z" fill="white"/>
<path d="M40.78 44.7301C40.78 45.4589 40.6364 46.1806 40.3575 46.8539C40.0786 47.5273 39.6698 48.1391 39.1544 48.6545C38.6391 49.1699 38.0272 49.5787 37.3539 49.8576C36.6805 50.1365 35.9588 50.2801 35.23 50.2801C34.5012 50.2801 33.7795 50.1365 33.1061 49.8576C32.4327 49.5787 31.8209 49.1699 31.3055 48.6545C30.7902 48.1391 30.3814 47.5273 30.1025 46.8539C29.8235 46.1806 29.68 45.4589 29.68 44.7301C29.68 43.2581 30.2647 41.8464 31.3055 40.8056C32.3464 39.7648 33.758 39.1801 35.23 39.1801C36.7019 39.1801 38.1136 39.7648 39.1544 40.8056C40.1953 41.8464 40.78 43.2581 40.78 44.7301ZM39.3 44.7501C39.3 43.6653 38.8691 42.625 38.1021 41.858C37.335 41.091 36.2947 40.6601 35.21 40.6601C34.1253 40.6601 33.0849 41.091 32.3179 41.858C31.5509 42.625 31.12 43.6653 31.12 44.7501C31.12 45.8348 31.5509 46.8751 32.3179 47.6421C33.0849 48.4091 34.1253 48.8401 35.21 48.8401C36.2947 48.8401 37.335 48.4091 38.1021 47.6421C38.8691 46.8751 39.3 45.8348 39.3 44.7501Z" fill="white"/>
<path d="M12.19 50.64C9.39 52.12 9.97 54.41 10.12 57.1C10.14 57.4734 9.96334 57.6834 9.59 57.73L9.24 57.77C8.88667 57.8167 8.7 57.66 8.68 57.3C8.48 54.2 7.95 51.31 11.23 49.52C17.4833 46.0867 23.6867 46.2334 29.84 49.96C30.2467 50.2067 30.24 50.4434 29.82 50.67L29.54 50.83C29.1333 51.05 28.73 51.0434 28.33 50.81C23.1367 47.7567 17.7567 47.7 12.19 50.64Z" fill="white"/>
<path d="M40.8 49.64C47.6933 45.8667 54.1067 45.9634 60.04 49.93C62.35 51.46 62.04 54.52 61.96 56.92C61.9467 57.3267 61.7367 57.5467 61.33 57.5801L61.02 57.6C60.5933 57.6334 60.3767 57.4367 60.37 57.01L60.35 52.92C60.3433 52.22 60.05 51.67 59.47 51.27C54.1233 47.5834 47.8833 47.5 40.75 51.02C40.7058 51.0426 40.6563 51.0526 40.6069 51.0489C40.5574 51.0452 40.5099 51.0279 40.4696 50.999C40.4293 50.9701 40.3978 50.9306 40.3784 50.8849C40.3591 50.8392 40.3527 50.7891 40.36 50.7401L40.44 50.16C40.4733 49.9267 40.5933 49.7534 40.8 49.64Z" fill="white"/>
<path d="M25.19 57.34C25.1767 58.78 25.17 60.1633 25.17 61.49C25.17 61.7633 25.0333 61.9166 24.76 61.95L24.27 62.01C23.9033 62.0566 23.72 61.8933 23.72 61.52L23.75 56.54C23.7562 56.2616 23.8586 55.9932 24.04 55.78C24.8267 54.8666 25.7367 54.1333 26.77 53.58C32.7633 50.4133 38.7633 50.62 44.77 54.2C47.34 55.74 46.83 59.11 46.68 61.61C46.66 61.8833 46.5167 62.0166 46.25 62.01H45.88C45.7173 62.0073 45.5621 61.9398 45.448 61.8219C45.3339 61.7041 45.2699 61.5453 45.27 61.38V57.33C45.27 57.0033 45.1733 56.7066 44.98 56.44C44.58 55.9133 44.0967 55.49 43.53 55.17C38.0033 52.03 32.4633 52.04 26.91 55.2C26.08 55.68 25.19 56.26 25.19 57.34Z" fill="white"/>
</svg>
