<svg width="337" height="132" viewBox="0 0 337 132" fill="none" xmlns="http://www.w3.org/2000/svg">
<g clip-path="url(#clip0_183_423)">
<path opacity="0.999" fill-rule="evenodd" clip-rule="evenodd" d="M42.125 -0.20752C46.4135 -0.20752 50.7023 -0.20752 54.9908 -0.20752C61.0008 1.13429 66.6729 3.41731 72.0068 6.64154C82.6592 15.0818 93.3113 23.5221 103.964 31.9623C106.39 34.6931 107.012 37.8063 105.831 41.3019C104.06 45.291 101.362 48.5424 97.7383 51.0566C94.8053 52.9657 91.9002 52.9657 89.0228 51.0566C79.339 43.5849 69.6549 36.1132 59.9711 28.6415C53.2083 24.0921 46.1528 23.5387 38.8048 26.9812C27.3244 36.8463 27.186 46.9468 38.3898 57.283C47.6585 64.893 56.9277 72.5033 66.1964 80.1132C68.3251 82.6345 68.8094 85.4709 67.649 88.6227C65.7034 93.6133 62.3139 97.2799 57.4809 99.6227C54.3226 100.378 51.5556 99.6866 49.1804 97.5472C39.7732 90.0755 30.366 82.6038 20.9588 75.1321C1.70742 56.1133 0.669854 36.1196 17.8461 15.151C24.3041 7.36451 32.3971 2.24502 42.125 -0.20752Z" fill="white"/>
<path opacity="0.986" fill-rule="evenodd" clip-rule="evenodd" d="M63.2912 131.792C59.141 131.792 54.9908 131.792 50.8405 131.792C44.1184 130.265 37.8929 127.567 32.1644 123.698C22.185 115.515 12.0861 107.49 1.8676 99.6226C1.1147 98.5936 0.422994 97.5559 -0.20752 96.5094C-0.20752 94.434 -0.20752 92.3585 -0.20752 90.283C2.21526 85.3002 5.95049 81.6337 10.9981 79.283C12.1049 79.0062 13.2116 79.0062 14.3183 79.283C25.1148 86.7614 35.6288 94.6482 45.8602 102.943C52.9887 107.644 60.3209 108.059 67.8565 104.189C77.747 95.3443 78.3002 85.9357 69.5166 75.9623C59.0182 67.5612 48.7118 58.9135 38.5973 50.0189C37.6758 48.3191 37.3992 46.5205 37.7672 44.6227C39.4632 38.6581 43.1294 34.438 48.7654 31.9623C50.9517 31.519 53.0269 31.7957 54.9908 32.7925C64.1213 39.9874 73.2518 47.1825 82.3824 54.3774C103.136 71.945 105.695 91.8002 90.0603 113.943C85.1215 120.55 78.9655 125.6 71.5917 129.094C68.8198 130.13 66.0528 131.03 63.2912 131.792Z" fill="white"/>
<path opacity="0.944" fill-rule="evenodd" clip-rule="evenodd" d="M120.98 74.0943C127.526 73.5543 131.676 76.391 133.43 82.6038C132.601 85.7518 130.872 86.3745 128.243 84.4717C126.204 79.9957 123.161 79.1655 119.112 81.9811C117.438 85.1192 118.061 87.6791 120.98 89.6604C124.408 90.8222 127.728 92.2057 130.94 93.8113C138.661 101.278 138.661 108.75 130.94 116.226C123.505 120.246 117.072 119.07 111.642 112.698C110.094 110.716 109.541 108.503 109.982 106.057C111.801 103.924 113.6 103.924 115.377 106.057C117.477 111.914 121.42 113.644 127.205 111.245C130.873 108.12 131.496 104.453 129.073 100.245C128.426 99.4736 127.665 98.851 126.79 98.3773C122.883 97.0449 119.147 95.3845 115.584 93.3962C110.327 87.1739 110.742 81.3626 116.829 75.9622C118.205 75.2026 119.589 74.58 120.98 74.0943Z" fill="white"/>
<path opacity="0.953" fill-rule="evenodd" clip-rule="evenodd" d="M152.937 86.5473C159.374 85.5149 164.7 87.4518 168.915 92.3586C170.561 94.7292 170.215 96.7358 167.877 98.3775C162.205 102.39 156.534 106.402 150.861 110.415C155.943 113.464 160.44 112.704 164.35 108.132C165.093 106.171 165.993 104.303 167.047 102.528C171.043 101.543 172.634 103.134 171.82 107.302C167.379 117.502 159.839 120.892 149.201 117.472C141.94 113.392 138.965 107.235 140.278 99.0001C142.267 92.5138 146.487 88.3629 152.937 86.5473ZM155.012 92.7737C157.338 92.6965 159.413 93.3191 161.237 94.6416C161.099 94.8492 160.96 95.0567 160.822 95.2643C156.534 98.3775 152.245 101.491 147.956 104.604C147.541 104.881 147.126 104.881 146.711 104.604C145.972 98.2156 148.739 94.2722 155.012 92.7737Z" fill="white"/>
<path opacity="0.951" fill-rule="evenodd" clip-rule="evenodd" d="M191.949 131.793C191.257 131.793 190.566 131.793 189.874 131.793C186.798 129.781 186.659 127.637 189.459 125.359C195.917 125.12 199.583 121.869 200.457 115.604C195.238 119.275 189.635 119.897 183.648 117.472C175.708 112.721 173.01 105.872 175.555 96.9246C178.39 90.2914 183.44 86.8324 190.704 86.5473C194.049 86.5107 197.162 87.3409 200.042 89.0378C200.794 88.2857 201.555 87.5248 202.325 86.7548C204.642 86.0338 206.233 86.7947 207.097 89.0378C207.374 98.3081 207.374 107.579 207.097 116.849C205.381 125.276 200.332 130.258 191.949 131.793ZM187.799 93.1888C193.527 92.1444 197.608 94.2199 200.042 99.4152C201.444 104.841 199.715 108.923 194.854 111.66C184.405 113.386 180.047 109.028 181.781 98.585C183.162 96.0654 185.168 94.2664 187.799 93.1888Z" fill="white"/>
<path opacity="0.952" fill-rule="evenodd" clip-rule="evenodd" d="M228.471 131.792C227.779 131.792 227.088 131.792 226.396 131.792C223.502 129.979 223.225 127.834 225.566 125.358C232.235 125.322 236.04 122.07 236.979 115.604C231.75 119.274 226.147 119.897 220.171 117.472C211.916 112.627 209.218 105.639 212.078 96.5094C216.333 88.2141 223.043 85.1009 232.206 87.1697C233.64 87.7102 235.023 88.3328 236.357 89.0377C237.238 88.3648 238.068 87.6039 238.847 86.7547C240.628 86.2557 242.081 86.7401 243.204 88.2075C243.481 98.308 243.481 108.409 243.204 118.509C241.081 126.102 236.17 130.529 228.471 131.792ZM224.321 93.1886C229.561 92.3231 233.504 94.1217 236.149 98.5848C238.088 104.251 236.498 108.61 231.376 111.66C225.719 113.497 221.362 111.906 218.303 106.887C216.259 100.487 218.265 95.9208 224.321 93.1886Z" fill="white"/>
<path opacity="0.956" fill-rule="evenodd" clip-rule="evenodd" d="M283.254 86.5471C284.921 86.298 286.374 86.7131 287.612 87.7924C291.435 86.0955 295.24 86.1648 299.025 87.9999C300.053 88.5433 300.883 89.3042 301.515 90.2829C300.469 91.6752 299.224 92.8516 297.78 93.8112C297.088 94.0881 296.397 94.0881 295.705 93.8112C292.802 92.3779 290.382 93.0006 288.442 95.6792C287.913 102.714 287.636 109.77 287.612 116.849C285.847 119.403 283.91 119.541 281.802 117.264C281.525 107.579 281.525 97.8929 281.802 88.2075C282.373 87.7073 282.857 87.154 283.254 86.5471Z" fill="white"/>
<path opacity="0.948" fill-rule="evenodd" clip-rule="evenodd" d="M336.792 98.5848C336.792 101.352 336.792 104.119 336.792 106.887C332.456 117.356 324.847 120.885 313.966 117.472C306.226 113.265 303.252 106.832 305.043 98.1697C308.409 89.5329 314.704 85.7281 323.927 86.7546C330.414 88.3316 334.702 92.275 336.792 98.5848ZM319.776 92.7735C327.031 93.3165 330.559 97.1909 330.36 104.396C328.656 110.337 324.713 112.896 318.531 112.075C312.882 110.113 310.461 106.17 311.268 100.245C312.664 96.0619 315.5 93.5713 319.776 92.7735Z" fill="white"/>
<path opacity="0.962" fill-rule="evenodd" clip-rule="evenodd" d="M250.052 86.5471C251.838 86.2549 253.291 86.8087 254.41 88.2075C254.437 94.5946 254.713 100.959 255.24 107.302C257.991 112.416 261.934 113.592 267.068 110.83C268.286 109.89 269.185 108.714 269.766 107.302C269.904 101.214 270.043 95.1259 270.181 89.0377C271.579 86.267 273.516 85.8519 275.991 87.7924C276.675 97.4413 276.813 107.127 276.406 116.849C275.483 118.659 274.03 119.282 272.049 118.717C271.419 118.018 270.727 117.395 269.974 116.849C263.367 120.181 257.349 119.35 251.92 114.358C250.374 112.372 249.267 110.158 248.6 107.717C248.323 101.214 248.323 94.7108 248.6 88.2075C249.171 87.7073 249.655 87.154 250.052 86.5471Z" fill="white"/>
</g>
<defs>
<clipPath id="clip0_183_423">
<rect width="337" height="132" fill="white"/>
</clipPath>
</defs>
</svg>
