<svg width="34" height="20" viewBox="0 0 34 20" fill="none" xmlns="http://www.w3.org/2000/svg">
<path fill-rule="evenodd" clip-rule="evenodd" d="M0.333344 1.66667C0.333344 1.22464 0.508938 0.800716 0.821499 0.488156C1.13406 0.175595 1.55798 0 2.00001 0H32C32.442 0 32.866 0.175595 33.1785 0.488156C33.4911 0.800716 33.6667 1.22464 33.6667 1.66667C33.6667 2.10869 33.4911 2.53262 33.1785 2.84518C32.866 3.15774 32.442 3.33333 32 3.33333H2.00001C1.55798 3.33333 1.13406 3.15774 0.821499 2.84518C0.508938 2.53262 0.333344 2.10869 0.333344 1.66667ZM0.333344 10C0.333344 9.55797 0.508938 9.13405 0.821499 8.82149C1.13406 8.50893 1.55798 8.33333 2.00001 8.33333H32C32.442 8.33333 32.866 8.50893 33.1785 8.82149C33.4911 9.13405 33.6667 9.55797 33.6667 10C33.6667 10.442 33.4911 10.8659 33.1785 11.1785C32.866 11.4911 32.442 11.6667 32 11.6667H2.00001C1.55798 11.6667 1.13406 11.4911 0.821499 11.1785C0.508938 10.8659 0.333344 10.442 0.333344 10ZM2.00001 16.6667C1.55798 16.6667 1.13406 16.8423 0.821499 17.1548C0.508938 17.4674 0.333344 17.8913 0.333344 18.3333C0.333344 18.7754 0.508938 19.1993 0.821499 19.5118C1.13406 19.8244 1.55798 20 2.00001 20H32C32.442 20 32.866 19.8244 33.1785 19.5118C33.4911 19.1993 33.6667 18.7754 33.6667 18.3333C33.6667 17.8913 33.4911 17.4674 33.1785 17.1548C32.866 16.8423 32.442 16.6667 32 16.6667H2.00001Z" fill="#064E7F"/>
</svg>
