<svg width="52" height="52" viewBox="0 0 52 52" fill="none" xmlns="http://www.w3.org/2000/svg">
<g clip-path="url(#clip0_183_398)">
<path d="M43.3333 4.33325H8.66668C6.28334 4.33325 4.33334 6.28325 4.33334 8.66659V43.3333C4.33334 45.7166 6.28334 47.6666 8.66668 47.6666H43.3333C45.7167 47.6666 47.6667 45.7166 47.6667 43.3333V8.66659C47.6667 6.28325 45.7167 4.33325 43.3333 4.33325ZM38.1333 19.0666C38.1333 19.2833 38.1333 19.4999 38.1333 19.9333C38.1333 28.1666 31.85 37.6999 20.3667 37.6999C16.9 37.6999 13.65 36.6166 10.8333 34.8833C11.2667 34.8833 11.9167 34.8833 12.35 34.8833C15.1667 34.8833 17.9833 33.7999 20.15 32.2833C17.3333 32.2833 15.1667 30.3333 14.3 27.9499C14.7333 27.9499 15.1667 28.1666 15.3833 28.1666C16.0333 28.1666 16.4667 28.1666 17.1167 27.9499C14.3 27.2999 12.1333 24.9166 12.1333 21.8833C13 22.3166 13.8667 22.5333 14.95 22.7499C13.2167 21.2333 12.1333 19.4999 12.1333 17.3333C12.1333 16.2499 12.35 15.1666 13 14.2999C16.0333 17.9833 20.5833 20.5833 25.7833 20.7999C25.7833 20.3666 25.5667 19.9333 25.5667 19.2833C25.5667 15.8166 28.3833 12.9999 31.85 12.9999C33.5833 12.9999 35.3167 13.6499 36.4 14.9499C37.9167 14.7333 39.2167 14.0833 40.3 13.4333C39.8667 14.9499 38.7833 16.0333 37.4833 16.8999C38.7833 16.6833 39.8667 16.4666 41.1667 15.8166C40.3 17.1166 39.2167 18.1999 38.1333 19.0666Z" fill="white"/>
</g>
<defs>
<clipPath id="clip0_183_398">
<rect width="52" height="52" fill="white"/>
</clipPath>
</defs>
</svg>
