<svg width="69" height="69" viewBox="0 0 69 69" fill="none" xmlns="http://www.w3.org/2000/svg">
<path d="M56.58 34.58C56.7 34.3266 56.76 34.0633 56.76 33.79C56.7733 25.1166 56.78 16.93 56.78 9.22996C56.78 8.90375 56.6504 8.59089 56.4198 8.36022C56.1891 8.12955 55.8762 7.99996 55.55 7.99996H18.5C18.1685 7.99996 17.8505 8.13166 17.6161 8.36608C17.3817 8.6005 17.25 8.91844 17.25 9.24996V12.07C17.25 12.2766 17.1433 12.37 16.93 12.35L16.19 12.27C15.99 12.25 15.8733 12.14 15.84 11.94C15.48 9.87996 15.67 6.52996 18.5 6.52996C30.8533 6.50996 43.1867 6.50663 55.5 6.51996C55.8585 6.51996 56.2135 6.59058 56.5447 6.72777C56.876 6.86497 57.1769 7.06606 57.4304 7.31956C57.6839 7.57307 57.885 7.87402 58.0222 8.20524C58.1594 8.53646 58.23 8.89145 58.23 9.24996V33.71C58.23 34.487 57.9203 35.2323 57.3689 35.7818C56.8175 36.3313 56.0697 36.64 55.29 36.64L30.69 36.63C30.6231 36.6292 30.5579 36.6094 30.502 36.5727C30.446 36.5361 30.4018 36.4842 30.3744 36.4232C30.3471 36.3621 30.3378 36.2946 30.3476 36.2284C30.3575 36.1623 30.3861 36.1004 30.43 36.05L30.87 35.54C30.9579 35.4424 31.0648 35.3644 31.1837 35.311C31.3025 35.2576 31.4307 35.23 31.56 35.23L55.53 35.22C55.7469 35.2201 55.9597 35.1605 56.145 35.0475C56.3302 34.9346 56.4807 34.7729 56.58 34.58Z" fill="white"/>
<path d="M19.66 18.69C19.66 19.8357 19.2048 20.9345 18.3947 21.7447C17.5845 22.5549 16.4857 23.01 15.34 23.01C14.1943 23.01 13.0954 22.5549 12.2853 21.7447C11.4751 20.9345 11.02 19.8357 11.02 18.69C11.02 17.5443 11.4751 16.4455 12.2853 15.6353C13.0954 14.8251 14.1943 14.37 15.34 14.37C16.4857 14.37 17.5845 14.8251 18.3947 15.6353C19.2048 16.4455 19.66 17.5443 19.66 18.69ZM18.22 18.69C18.22 17.9288 17.9176 17.1988 17.3794 16.6606C16.8412 16.1224 16.1112 15.82 15.35 15.82C14.5888 15.82 13.8588 16.1224 13.3206 16.6606C12.7824 17.1988 12.48 17.9288 12.48 18.69C12.48 19.4512 12.7824 20.1812 13.3206 20.7194C13.8588 21.2576 14.5888 21.56 15.35 21.56C16.1112 21.56 16.8412 21.2576 17.3794 20.7194C17.9176 20.1812 18.22 19.4512 18.22 18.69Z" fill="white"/>
<path d="M25.13 30.6899L27.28 27.3499C27.4063 27.1525 27.5799 26.9891 27.7857 26.874C27.9914 26.7589 28.223 26.6957 28.46 26.6899L29.67 26.6499C30.07 26.6366 30.41 26.4866 30.69 26.1999L39.22 17.4699C39.5467 17.1366 39.88 17.1299 40.22 17.4499L40.46 17.6799C40.503 17.7187 40.5378 17.7658 40.5623 17.8183C40.5867 17.8708 40.6002 17.9278 40.6021 17.9857C40.604 18.0436 40.5941 18.1013 40.5731 18.1553C40.5521 18.2093 40.5205 18.2585 40.48 18.2999L31.69 27.2399C31.43 27.4999 31.3567 27.8066 31.47 28.1599C32.21 30.5099 28.76 34.8299 27.47 36.8499C26.6567 38.1366 25.5133 38.5433 24.04 38.0699C23.74 37.9766 23.5333 37.7799 23.42 37.4799C23.36 37.3066 23.3733 37.1333 23.46 36.9599C23.5933 36.7066 23.8 36.6033 24.08 36.6499C24.5467 36.7366 25.02 36.7433 25.5 36.6699C25.8 36.6233 26.0267 36.4699 26.18 36.2099L29.96 30.0699C30.3733 29.3966 30.29 28.7899 29.71 28.2499C29.5767 28.1299 29.4167 28.0666 29.23 28.0599C28.7433 28.0466 28.3733 28.2466 28.12 28.6599L25.1 33.5299C25.0251 33.6541 24.9157 33.754 24.7852 33.8173C24.6547 33.8806 24.5087 33.9047 24.3648 33.8868C24.2208 33.8688 24.0852 33.8094 23.9743 33.7159C23.8634 33.6224 23.782 33.4988 23.74 33.3599C23.1867 31.5599 22.5967 29.7866 21.97 28.0399C21.61 27.0399 20.91 26.4633 19.87 26.3099C16.9433 25.8833 13.9767 25.8699 10.97 26.2699C10.3862 26.3488 9.84267 26.6124 9.41827 27.0224C8.99388 27.4324 8.71075 27.9675 8.60999 28.5499C7.92999 32.5366 7.15999 36.8566 6.29999 41.5099C6.15999 42.2633 6.42665 42.6699 7.09999 42.7299C7.21496 42.742 7.32551 42.7809 7.42276 42.8434C7.52001 42.9059 7.60125 42.9904 7.65999 43.0899C7.82665 43.3766 7.82332 43.6533 7.64999 43.9199C7.56185 44.055 7.43505 44.1601 7.28667 44.2208C7.13828 44.2816 6.97542 44.2953 6.81999 44.2599C5.10666 43.8799 4.43332 42.8099 4.79999 41.0499C5.62666 37.0566 6.38332 32.9233 7.06999 28.6499C7.23666 27.6166 7.66332 26.7399 8.34999 26.0199C10.63 23.6599 18.04 24.4099 20.48 24.9699C23.19 25.5899 23.67 28.2899 24.3 30.5599C24.4867 31.2199 24.7633 31.2633 25.13 30.6899Z" fill="white"/>
<path d="M14.75 60.74V43.62C14.7504 43.5503 14.7744 43.4827 14.8179 43.4283C14.8615 43.3739 14.9221 43.3357 14.99 43.32L15.83 43.11C15.8761 43.0993 15.9241 43.0993 15.9702 43.11C16.0163 43.1207 16.0594 43.1418 16.0961 43.1717C16.1327 43.2017 16.1621 43.2396 16.1818 43.2826C16.2016 43.3257 16.2112 43.3726 16.21 43.42L16.2 60.74C16.2 60.7815 16.2083 60.8227 16.2245 60.861C16.2407 60.8992 16.2644 60.9339 16.2943 60.9628C16.3241 60.9917 16.3595 61.0143 16.3983 61.0293C16.4371 61.0443 16.4784 61.0513 16.52 61.05L19.16 61C19.2405 60.9974 19.3168 60.9636 19.3728 60.9057C19.4287 60.8478 19.46 60.7705 19.46 60.69L19.49 31.46C19.4895 31.4113 19.5004 31.3631 19.522 31.3195C19.5435 31.2758 19.575 31.2378 19.614 31.2086C19.6529 31.1794 19.6982 31.1598 19.7462 31.1513C19.7941 31.1429 19.8434 31.1458 19.89 31.16L20.74 31.41C20.8042 31.4294 20.8603 31.4692 20.9 31.5233C20.9397 31.5774 20.9607 31.6429 20.96 31.71L20.97 62.17C20.97 62.2522 20.9373 62.331 20.8792 62.3892C20.8211 62.4473 20.7422 62.48 20.66 62.48H10.3C10.2178 62.48 10.1389 62.4473 10.0808 62.3892C10.0227 62.331 9.98999 62.2522 9.98999 62.17L10.02 31.68C10.0198 31.6011 10.0497 31.5251 10.1036 31.4675C10.1575 31.4099 10.2313 31.3751 10.31 31.37L11.16 31.3C11.2024 31.2972 11.2448 31.3032 11.2848 31.3176C11.3247 31.3319 11.3613 31.3543 11.3922 31.3834C11.4232 31.4124 11.4478 31.4475 11.4646 31.4865C11.4814 31.5255 11.4901 31.5675 11.49 31.61L11.51 60.7C11.51 60.7822 11.5427 60.861 11.6008 60.9192C11.6589 60.9773 11.7378 61.01 11.82 61.01L14.44 61.05C14.5222 61.05 14.6011 61.0173 14.6592 60.9592C14.7173 60.901 14.75 60.8222 14.75 60.74Z" fill="white"/>
<path d="M32.81 48.99C32.81 49.4207 32.7252 49.8472 32.5603 50.2452C32.3955 50.6431 32.1539 51.0047 31.8493 51.3093C31.5447 51.6138 31.1831 51.8555 30.7852 52.0203C30.3873 52.1851 29.9607 52.27 29.53 52.27C29.0993 52.27 28.6727 52.1851 28.2748 52.0203C27.8768 51.8555 27.5153 51.6138 27.2107 51.3093C26.9061 51.0047 26.6645 50.6431 26.4997 50.2452C26.3348 49.8472 26.25 49.4207 26.25 48.99C26.25 48.1201 26.5956 47.2858 27.2107 46.6707C27.8258 46.0555 28.6601 45.71 29.53 45.71C30.3999 45.71 31.2342 46.0555 31.8493 46.6707C32.4644 47.2858 32.81 48.1201 32.81 48.99ZM31.32 48.99C31.32 48.5073 31.1283 48.0443 30.7869 47.703C30.4456 47.3617 29.9827 47.17 29.5 47.17C29.0173 47.17 28.5544 47.3617 28.2131 47.703C27.8717 48.0443 27.68 48.5073 27.68 48.99C27.68 49.4727 27.8717 49.9356 28.2131 50.2769C28.5544 50.6182 29.0173 50.81 29.5 50.81C29.9827 50.81 30.4456 50.6182 30.7869 50.2769C31.1283 49.9356 31.32 49.4727 31.32 48.99Z" fill="white"/>
<path d="M47.1 48.98C47.1 49.8472 46.7555 50.679 46.1422 51.2922C45.529 51.9054 44.6973 52.25 43.83 52.25C42.9627 52.25 42.131 51.9054 41.5178 51.2922C40.9045 50.679 40.56 49.8472 40.56 48.98C40.56 48.1127 40.9045 47.281 41.5178 46.6677C42.131 46.0545 42.9627 45.71 43.83 45.71C44.6973 45.71 45.529 46.0545 46.1422 46.6677C46.7555 47.281 47.1 48.1127 47.1 48.98ZM45.62 49C45.62 48.5252 45.4314 48.0699 45.0957 47.7342C44.76 47.3986 44.3047 47.21 43.83 47.21C43.3553 47.21 42.9 47.3986 42.5643 47.7342C42.2286 48.0699 42.04 48.5252 42.04 49C42.04 49.4747 42.2286 49.93 42.5643 50.2657C42.9 50.6014 43.3553 50.79 43.83 50.79C44.3047 50.79 44.76 50.6014 45.0957 50.2657C45.4314 49.93 45.62 49.4747 45.62 49Z" fill="white"/>
<path d="M61.43 48.98C61.43 49.4081 61.3457 49.832 61.1819 50.2275C61.018 50.623 60.7779 50.9824 60.4752 51.2851C60.1725 51.5879 59.8131 51.828 59.4176 51.9918C59.022 52.1556 58.5981 52.24 58.17 52.24C57.7419 52.24 57.318 52.1556 56.9225 51.9918C56.5269 51.828 56.1676 51.5879 55.8648 51.2851C55.5621 50.9824 55.322 50.623 55.1582 50.2275C54.9943 49.832 54.91 49.4081 54.91 48.98C54.91 48.1154 55.2535 47.2862 55.8648 46.6748C56.4762 46.0634 57.3054 45.72 58.17 45.72C59.0346 45.72 59.8638 46.0634 60.4752 46.6748C61.0865 47.2862 61.43 48.1154 61.43 48.98ZM59.95 49C59.95 48.5252 59.7614 48.0699 59.4257 47.7342C59.09 47.3986 58.6347 47.21 58.16 47.21C57.6853 47.21 57.23 47.3986 56.8943 47.7342C56.5586 48.0699 56.37 48.5252 56.37 49C56.37 49.4747 56.5586 49.93 56.8943 50.2657C57.23 50.6014 57.6853 50.79 58.16 50.79C58.6347 50.79 59.09 50.6014 59.4257 50.2657C59.7614 49.93 59.95 49.4747 59.95 49Z" fill="white"/>
<path d="M23.62 59.65C23.5259 59.6514 23.4325 59.634 23.3452 59.5989C23.2579 59.5638 23.1785 59.5117 23.1115 59.4456C23.0445 59.3796 22.9913 59.3009 22.955 59.2141C22.9187 59.1273 22.9 59.0341 22.9 58.94V57.2C22.8984 56.1582 23.5263 55.1579 24.6458 54.4191C25.7653 53.6802 27.2847 53.2633 28.87 53.26H30.05C30.8356 53.2584 31.6138 53.3585 32.3401 53.5546C33.0664 53.7508 33.7265 54.0391 34.2828 54.4031C34.839 54.7672 35.2806 55.1998 35.5821 55.6763C35.8836 56.1527 36.0392 56.6637 36.04 57.18V58.92C36.04 59.1066 35.9666 59.2857 35.8356 59.4186C35.7046 59.5514 35.5266 59.6274 35.34 59.63L23.62 59.65ZM24.43 58.21H34.49C34.5351 58.21 34.5783 58.1921 34.6102 58.1602C34.6421 58.1284 34.66 58.0851 34.66 58.04V57.96C34.66 57.0716 34.1585 56.2195 33.2658 55.5912C32.3732 54.963 31.1624 54.61 29.9 54.61H29.02C27.7576 54.61 26.5468 54.963 25.6542 55.5912C24.7615 56.2195 24.26 57.0716 24.26 57.96V58.04C24.26 58.0851 24.2779 58.1284 24.3098 58.1602C24.3417 58.1921 24.3849 58.21 24.43 58.21Z" fill="white"/>
<path d="M38.02 59.65C37.9246 59.6513 37.8299 59.6337 37.7414 59.5981C37.6529 59.5625 37.5723 59.5097 37.5044 59.4427C37.4365 59.3757 37.3826 59.2959 37.3458 59.2079C37.309 59.1199 37.29 59.0254 37.29 58.93V57.12C37.2886 56.0941 37.943 55.1092 39.1093 54.3816C40.2756 53.654 41.8585 53.2434 43.51 53.24H44.13C44.9485 53.2383 45.7593 53.3368 46.516 53.5299C47.2726 53.723 47.9604 54.0069 48.5399 54.3654C49.1194 54.7239 49.5793 55.1499 49.8933 55.6191C50.2073 56.0883 50.3693 56.5915 50.37 57.1V58.91C50.37 59.0992 50.2955 59.2809 50.1627 59.4156C50.0298 59.5504 49.8492 59.6274 49.66 59.63L38.02 59.65ZM38.79 58.22L48.87 58.2C48.9098 58.2 48.9479 58.1842 48.9761 58.1561C49.0042 58.1279 49.02 58.0898 49.02 58.05V57.99C49.0178 57.092 48.5258 56.2317 47.6521 55.598C46.7785 54.9643 45.5944 54.609 44.36 54.61H43.3C42.6873 54.6105 42.0807 54.6989 41.5147 54.8701C40.9488 55.0413 40.4347 55.292 40.0019 55.6078C39.5691 55.9236 39.226 56.2983 38.9923 56.7105C38.7586 57.1227 38.6389 57.5643 38.64 58.01V58.07C38.64 58.1098 38.6558 58.1479 38.6839 58.1761C38.7121 58.2042 38.7502 58.22 38.79 58.22Z" fill="white"/>
<path d="M52.45 59.64C52.2511 59.64 52.0603 59.561 51.9197 59.4203C51.779 59.2797 51.7 59.0889 51.7 58.89V57.18C51.7 56.135 52.3448 55.1329 53.4925 54.394C54.6402 53.6551 56.1969 53.24 57.82 53.24H58.7C60.3231 53.24 61.8798 53.6551 63.0275 54.394C64.1752 55.1329 64.82 56.135 64.82 57.18V58.89C64.82 59.0889 64.741 59.2797 64.6003 59.4203C64.4597 59.561 64.2689 59.64 64.07 59.64H52.45ZM53.2 58.21H63.22C63.2678 58.21 63.3135 58.191 63.3473 58.1573C63.381 58.1235 63.4 58.0777 63.4 58.03V57.93C63.4 57.0442 62.8859 56.1946 61.9707 55.5683C61.0555 54.9419 59.8143 54.59 58.52 54.59H57.9C56.6058 54.59 55.3645 54.9419 54.4493 55.5683C53.5342 56.1946 53.02 57.0442 53.02 57.93V58.03C53.02 58.0777 53.039 58.1235 53.0727 58.1573C53.1065 58.191 53.1523 58.21 53.2 58.21Z" fill="white"/>
</svg>
