<svg width="69" height="69" viewBox="0 0 69 69" fill="none" xmlns="http://www.w3.org/2000/svg">
<path d="M12.94 17.97C14.9227 17.97 16.53 16.3627 16.53 14.38C16.53 12.3973 14.9227 10.79 12.94 10.79C10.9573 10.79 9.35001 12.3973 9.35001 14.38C9.35001 16.3627 10.9573 17.97 12.94 17.97Z" fill="white"/>
<path d="M27.29 17.99C29.2837 17.99 30.9 16.3738 30.9 14.38C30.9 12.3863 29.2837 10.77 27.29 10.77C25.2962 10.77 23.68 12.3863 23.68 14.38C23.68 16.3738 25.2962 17.99 27.29 17.99Z" fill="white"/>
<path d="M41.68 17.99C43.6738 17.99 45.29 16.3738 45.29 14.38C45.29 12.3863 43.6738 10.77 41.68 10.77C39.6863 10.77 38.07 12.3863 38.07 14.38C38.07 16.3738 39.6863 17.99 41.68 17.99Z" fill="white"/>
<path d="M30.97 24.63C30.93 27.6633 30.9367 30.7933 30.99 34.02C31.01 34.9133 30.73 35.02 30.15 34.34C28 31.81 26.25 32.5 24.33 34.57C23.91 35.0233 23.7 34.9366 23.7 34.31V26.2C23.7067 24.0666 23.4667 24.0366 22.98 26.11C22.4867 28.21 22.0233 30.3166 21.59 32.43C21.4967 32.8566 21.2867 33.2066 20.96 33.48C20.7798 33.6269 20.5653 33.7256 20.3364 33.7667C20.1076 33.8079 19.8721 33.7901 19.652 33.7151C19.432 33.64 19.2346 33.5103 19.0786 33.3379C18.9225 33.1656 18.8129 32.9564 18.76 32.73L16.95 24.78C16.79 24.0866 16.6433 24.09 16.51 24.79C16.31 25.83 16.3067 26.85 16.5 27.85C17.16 31.2633 17.86 34.7333 18.6 38.26C18.6179 38.3458 18.6147 38.4348 18.5905 38.5191C18.5664 38.6033 18.5221 38.6801 18.4616 38.7425C18.4011 38.805 18.3264 38.8512 18.2441 38.8769C18.1618 38.9026 18.0745 38.9071 17.99 38.89L17.06 38.72C16.9901 38.7084 16.9186 38.7121 16.8503 38.7309C16.782 38.7496 16.7185 38.783 16.6644 38.8286C16.6102 38.8742 16.5665 38.931 16.5364 38.9952C16.5063 39.0593 16.4905 39.1292 16.49 39.2V41.53C16.49 42.062 16.2817 42.5719 15.91 42.95L14.37 44.5C13.9167 44.96 13.6867 44.8666 13.68 44.22L13.63 39.24C13.6125 39.0747 13.535 38.9216 13.4123 38.8095C13.2896 38.6974 13.13 38.6342 12.9639 38.6317C12.7977 38.6293 12.6364 38.6878 12.5104 38.7962C12.3844 38.9045 12.3024 39.0553 12.28 39.22C12.1933 41.42 12.1767 43.5766 12.23 45.69C12.2433 46.2966 12.03 46.82 11.59 47.26C11.53 47.3266 11.0233 47.84 10.07 48.8C9.59667 49.28 9.36 49.1866 9.36 48.52L9.37 39.39C9.36947 39.2973 9.34914 39.2059 9.31037 39.1217C9.2716 39.0376 9.21529 38.9627 9.14521 38.9021C9.07514 38.8415 8.99292 38.7966 8.90406 38.7703C8.8152 38.7441 8.72176 38.7372 8.63 38.75L8.04 38.82C7.48667 38.8933 7.26 38.6533 7.36 38.1C7.92667 35.18 8.51 32.34 9.11 29.58C9.47667 27.8666 9.52667 26.1666 9.26 24.48C9.16667 23.9 9.06 23.8966 8.94 24.47L7.32 32.27C7.12667 33.21 6.55334 33.72 5.6 33.8C4.94 33.8533 4.53334 33.1933 4.38 31.82C4.38001 31.7801 4.38337 31.7431 4.39 31.71L6.69 21.52C6.75508 21.2219 6.92084 20.9539 7.16 20.76C10.27 18.21 15.68 17.88 18.86 20.89C19.1 21.1166 19.2467 21.39 19.3 21.71L19.84 24.74C19.9467 25.36 20.11 25.3733 20.33 24.78C20.6367 23.94 20.81 23.07 20.85 22.17C20.87 21.8433 20.9767 21.55 21.17 21.29C23.91 17.69 29.88 18.37 33.06 20.68C33.3533 20.8933 33.5333 21.1766 33.6 21.53L34.14 24.5C34.2933 25.3466 34.4933 25.3566 34.74 24.53C35.02 23.5633 35.2267 22.5933 35.36 21.62C35.3855 21.4217 35.452 21.2311 35.5554 21.0606C35.6587 20.89 35.7966 20.7433 35.96 20.63C39.5733 18.1366 43.3133 18.08 47.18 20.46C47.58 20.7066 47.83 21.0566 47.93 21.51L49.82 29.99C49.8667 30.1966 49.83 30.39 49.71 30.57C49.2167 31.31 48.62 31.95 47.92 32.49C47.8692 32.5307 47.8088 32.5577 47.7446 32.5684C47.6804 32.5791 47.6145 32.5731 47.5533 32.551C47.4921 32.5289 47.4376 32.4915 47.395 32.4423C47.3523 32.3931 47.3231 32.3337 47.31 32.27L45.84 25.45C45.56 24.1366 45.3833 24.15 45.31 25.49C45.1833 27.9433 45.1933 30.6566 45.34 33.63C45.43 35.51 44.12 36.35 42.97 37.5C42.9232 37.5503 42.8614 37.5842 42.7938 37.5967C42.7262 37.6091 42.6564 37.5995 42.5947 37.5692C42.533 37.5389 42.4827 37.4896 42.4513 37.4285C42.4198 37.3674 42.4088 37.2978 42.42 37.23C42.5333 36.4166 42.5133 35.6133 42.36 34.82C42.3436 34.7381 42.3106 34.6605 42.263 34.592C42.2155 34.5236 42.1544 34.4659 42.0838 34.4226C42.0132 34.3793 41.9346 34.3514 41.853 34.3406C41.7715 34.3298 41.6887 34.3364 41.61 34.36C41.5033 34.3933 41.4033 34.44 41.31 34.5C41.11 34.62 41.0067 34.7933 41 35.02C40.9733 36.36 40.9733 37.6533 41 38.9C41.0067 39.2266 40.8933 39.5033 40.66 39.73L38.44 41.94C38.1267 42.2533 37.97 42.19 37.97 41.75L38.04 25.22C38.04 23.9266 37.8833 23.9066 37.57 25.16C37.01 27.3733 36.4933 29.7966 36.02 32.43C35.9589 32.7693 35.7912 33.0802 35.5412 33.3176C35.2912 33.555 34.972 33.7065 34.63 33.75C33.7567 33.87 33.2233 33.4566 33.03 32.51C32.47 29.8166 31.88 27.18 31.26 24.6C31.08 23.8333 30.9833 23.8433 30.97 24.63Z" fill="white"/>
<path d="M38.32 46.19L57.22 27.28C57.2508 27.2502 57.2754 27.2144 57.2921 27.1749C57.3089 27.1354 57.3175 27.0929 57.3175 27.05C57.3175 27.0071 57.3089 26.9646 57.2921 26.9251C57.2754 26.8856 57.2508 26.8499 57.22 26.82L53.57 23.29C53.5237 23.2453 53.492 23.1876 53.479 23.1245C53.466 23.0614 53.4723 22.9959 53.4972 22.9365C53.522 22.8771 53.5642 22.8265 53.6182 22.7915C53.6723 22.7564 53.7356 22.7385 53.8 22.74L64.37 22.81C64.4549 22.81 64.5363 22.8437 64.5963 22.9037C64.6563 22.9638 64.69 23.0451 64.69 23.13L64.74 33.61C64.7415 33.6744 64.7236 33.7378 64.6886 33.7918C64.6535 33.8458 64.603 33.888 64.5435 33.9129C64.4841 33.9377 64.4186 33.944 64.3555 33.931C64.2924 33.9181 64.2348 33.8863 64.19 33.84L60.65 30.37C60.5901 30.3108 60.5093 30.2776 60.425 30.2776C60.3408 30.2776 60.2599 30.3108 60.2 30.37L38.34 52.22C38.3102 52.2509 38.2744 52.2754 38.2349 52.2921C38.1954 52.3089 38.1529 52.3175 38.11 52.3175C38.0671 52.3175 38.0246 52.3089 37.9851 52.2921C37.9456 52.2754 37.9098 52.2509 37.88 52.22L27.53 41.88C27.5002 41.8492 27.4644 41.8246 27.4249 41.8079C27.3854 41.7911 27.3429 41.7825 27.3 41.7825C27.2571 41.7825 27.2146 41.7911 27.1751 41.8079C27.1356 41.8246 27.0998 41.8492 27.07 41.88L8.23 60.73C8.17142 60.7906 8.09131 60.8256 8.00706 60.8275C7.9228 60.8294 7.84121 60.7979 7.78 60.74L5.21 58.2C5.17916 58.1702 5.15463 58.1344 5.13787 58.0949C5.12112 58.0554 5.11249 58.0129 5.11249 57.97C5.11249 57.9271 5.12112 57.8846 5.13787 57.8451C5.15463 57.8056 5.17916 57.7699 5.21 57.74L27.08 35.82C27.1098 35.7892 27.1456 35.7646 27.1851 35.7479C27.2246 35.7311 27.2671 35.7225 27.31 35.7225C27.3529 35.7225 27.3954 35.7311 27.4349 35.7479C27.4744 35.7646 27.5102 35.7892 27.54 35.82L37.86 46.19C37.8898 46.2209 37.9256 46.2454 37.9651 46.2621C38.0046 46.2789 38.0471 46.2875 38.09 46.2875C38.1329 46.2875 38.1754 46.2789 38.2149 46.2621C38.2544 46.2454 38.2902 46.2209 38.32 46.19Z" fill="white"/>
</svg>
